<?xml version="1.0" standalone="no"?>
 <!DOCTYPE svg PUBLIC "-//W3C//DTD SVG 1.1//EN" 
 "http://www.w3.org/Graphics/SVG/1.1/DTD/svg11.dtd"> 
<svg xmlns="http://www.w3.org/2000/svg" version="1.1" 
    width="29.7002cm" height="21.0007cm" viewBox="0 0 116930 82680 ">
<title>SVG Picture created as AmpliGSR-brd.svg date 2016/06/22 15:35:14 </title>
  <desc>Picture generated by PCBNEW </desc>
<g style="fill:#000000; fill-opacity:1;stroke:#000000; stroke-opacity:1;
stroke-linecap:round; stroke-linejoin:round; "
 transform="translate(0 0) scale(1 1)">
</g>
<g style="fill:#000000; fill-opacity:0.0; 
stroke:#000000; stroke-width:39.3701; stroke-opacity:1; 
stroke-linecap:round; stroke-linejoin:round;">
</g>
<g style="fill:#000000; fill-opacity:0.0; 
stroke:#000000; stroke-width:59.0551; stroke-opacity:1; 
stroke-linecap:round; stroke-linejoin:round;">
<rect x="69685.9" y="65357.2" width="42519.7" height="12598.4" rx="0" />
</g>
<g style="fill:#000000; fill-opacity:0.0; 
stroke:#000000; stroke-width:39.3701; stroke-opacity:1; 
stroke-linecap:round; stroke-linejoin:round;">
</g>
<g style="fill:#000000; fill-opacity:0.0; 
stroke:#000000; stroke-width:59.0551; stroke-opacity:1; 
stroke-linecap:round; stroke-linejoin:round;">
<rect x="3937.01" y="3937.01" width="109056" height="74806" rx="0" />
</g>
<g style="fill:#000000; fill-opacity:0.0; 
stroke:#000000; stroke-width:39.3701; stroke-opacity:1; 
stroke-linecap:round; stroke-linejoin:round;">
</g>
<g style="fill:#000000; fill-opacity:0.0; 
stroke:#000000; stroke-width:59.0551; stroke-opacity:1; 
stroke-linecap:round; stroke-linejoin:round;">
<rect x="4724.41" y="4724.41" width="107481" height="73231.2" rx="0" />
</g>
<g style="fill:#000000; fill-opacity:0.0; 
stroke:#000000; stroke-width:39.3701; stroke-opacity:1; 
stroke-linecap:round; stroke-linejoin:round;">
</g>
<g style="fill:#000000; fill-opacity:0.0; 
stroke:#000000; stroke-width:59.0551; stroke-opacity:1; 
stroke-linecap:round; stroke-linejoin:round;">
<path d="M23622 4724
L23622 3937
" />
</g>
<g style="fill:#000000; fill-opacity:0.0; 
stroke:#000000; stroke-width:39.3701; stroke-opacity:1; 
stroke-linecap:round; stroke-linejoin:round;">
</g>
<g style="fill:#000000; fill-opacity:0.0; 
stroke:#000000; stroke-width:59.0551; stroke-opacity:1; 
stroke-linecap:round; stroke-linejoin:round;">
<path d="M43307 4724
L43307 3937
" />
</g>
<g style="fill:#000000; fill-opacity:0.0; 
stroke:#000000; stroke-width:39.3701; stroke-opacity:1; 
stroke-linecap:round; stroke-linejoin:round;">
</g>
<g style="fill:#000000; fill-opacity:0.0; 
stroke:#000000; stroke-width:59.0551; stroke-opacity:1; 
stroke-linecap:round; stroke-linejoin:round;">
<path d="M62992 4724
L62992 3937
" />
</g>
<g style="fill:#000000; fill-opacity:0.0; 
stroke:#000000; stroke-width:39.3701; stroke-opacity:1; 
stroke-linecap:round; stroke-linejoin:round;">
</g>
<g style="fill:#000000; fill-opacity:0.0; 
stroke:#000000; stroke-width:59.0551; stroke-opacity:1; 
stroke-linecap:round; stroke-linejoin:round;">
<path d="M82677 4724
L82677 3937
" />
</g>
<g style="fill:#000000; fill-opacity:0.0; 
stroke:#000000; stroke-width:39.3701; stroke-opacity:1; 
stroke-linecap:round; stroke-linejoin:round;">
</g>
<g style="fill:#000000; fill-opacity:0.0; 
stroke:#000000; stroke-width:59.0551; stroke-opacity:1; 
stroke-linecap:round; stroke-linejoin:round;">
<path d="M102362 4724
L102362 3937
" />
</g>
<g style="fill:#000000; fill-opacity:0.0; 
stroke:#000000; stroke-width:39.3701; stroke-opacity:1; 
stroke-linecap:round; stroke-linejoin:round;">
</g>
<g style="fill:#000000; fill-opacity:0.0; 
stroke:#000000; stroke-width:59.0551; stroke-opacity:1; 
stroke-linecap:round; stroke-linejoin:round;">
<path d="M14169 4562
L13877 4562
" />
<path d="M14023 4562
L14023 4050
L13974 4123
L13925 4172
L13877 4196
" />
</g>
<g style="fill:#000000; fill-opacity:0.0; 
stroke:#000000; stroke-width:39.3701; stroke-opacity:1; 
stroke-linecap:round; stroke-linejoin:round;">
</g>
<g style="fill:#000000; fill-opacity:0.0; 
stroke:#000000; stroke-width:59.0551; stroke-opacity:1; 
stroke-linecap:round; stroke-linejoin:round;">
<path d="M33562 4099
L33586 4074
L33635 4050
L33757 4050
L33805 4074
L33830 4099
L33854 4147
L33854 4196
L33830 4269
L33537 4562
L33854 4562
" />
</g>
<g style="fill:#000000; fill-opacity:0.0; 
stroke:#000000; stroke-width:39.3701; stroke-opacity:1; 
stroke-linecap:round; stroke-linejoin:round;">
</g>
<g style="fill:#000000; fill-opacity:0.0; 
stroke:#000000; stroke-width:59.0551; stroke-opacity:1; 
stroke-linecap:round; stroke-linejoin:round;">
<path d="M53222 4050
L53539 4050
L53368 4245
L53442 4245
L53490 4269
L53515 4294
L53539 4342
L53539 4464
L53515 4513
L53490 4537
L53442 4562
L53295 4562
L53247 4537
L53222 4513
" />
</g>
<g style="fill:#000000; fill-opacity:0.0; 
stroke:#000000; stroke-width:39.3701; stroke-opacity:1; 
stroke-linecap:round; stroke-linejoin:round;">
</g>
<g style="fill:#000000; fill-opacity:0.0; 
stroke:#000000; stroke-width:59.0551; stroke-opacity:1; 
stroke-linecap:round; stroke-linejoin:round;">
<path d="M73175 4221
L73175 4562
" />
<path d="M73053 4026
L72932 4391
L73248 4391
" />
</g>
<g style="fill:#000000; fill-opacity:0.0; 
stroke:#000000; stroke-width:39.3701; stroke-opacity:1; 
stroke-linecap:round; stroke-linejoin:round;">
</g>
<g style="fill:#000000; fill-opacity:0.0; 
stroke:#000000; stroke-width:59.0551; stroke-opacity:1; 
stroke-linecap:round; stroke-linejoin:round;">
<path d="M92885 4050
L92641 4050
L92617 4294
L92641 4269
L92690 4245
L92812 4245
L92860 4269
L92885 4294
L92909 4342
L92909 4464
L92885 4513
L92860 4537
L92812 4562
L92690 4562
L92641 4537
L92617 4513
" />
</g>
<g style="fill:#000000; fill-opacity:0.0; 
stroke:#000000; stroke-width:39.3701; stroke-opacity:1; 
stroke-linecap:round; stroke-linejoin:round;">
</g>
<g style="fill:#000000; fill-opacity:0.0; 
stroke:#000000; stroke-width:59.0551; stroke-opacity:1; 
stroke-linecap:round; stroke-linejoin:round;">
<path d="M112545 4050
L112448 4050
L112399 4074
L112375 4099
L112326 4172
L112302 4269
L112302 4464
L112326 4513
L112350 4537
L112399 4562
L112497 4562
L112545 4537
L112570 4513
L112594 4464
L112594 4342
L112570 4294
L112545 4269
L112497 4245
L112399 4245
L112350 4269
L112326 4294
L112302 4342
" />
</g>
<g style="fill:#000000; fill-opacity:0.0; 
stroke:#000000; stroke-width:39.3701; stroke-opacity:1; 
stroke-linecap:round; stroke-linejoin:round;">
</g>
<g style="fill:#000000; fill-opacity:0.0; 
stroke:#000000; stroke-width:59.0551; stroke-opacity:1; 
stroke-linecap:round; stroke-linejoin:round;">
<path d="M23622 77955
L23622 78742
" />
</g>
<g style="fill:#000000; fill-opacity:0.0; 
stroke:#000000; stroke-width:39.3701; stroke-opacity:1; 
stroke-linecap:round; stroke-linejoin:round;">
</g>
<g style="fill:#000000; fill-opacity:0.0; 
stroke:#000000; stroke-width:59.0551; stroke-opacity:1; 
stroke-linecap:round; stroke-linejoin:round;">
<path d="M43307 77955
L43307 78742
" />
</g>
<g style="fill:#000000; fill-opacity:0.0; 
stroke:#000000; stroke-width:39.3701; stroke-opacity:1; 
stroke-linecap:round; stroke-linejoin:round;">
</g>
<g style="fill:#000000; fill-opacity:0.0; 
stroke:#000000; stroke-width:59.0551; stroke-opacity:1; 
stroke-linecap:round; stroke-linejoin:round;">
<path d="M62992 77955
L62992 78742
" />
</g>
<g style="fill:#000000; fill-opacity:0.0; 
stroke:#000000; stroke-width:39.3701; stroke-opacity:1; 
stroke-linecap:round; stroke-linejoin:round;">
</g>
<g style="fill:#000000; fill-opacity:0.0; 
stroke:#000000; stroke-width:59.0551; stroke-opacity:1; 
stroke-linecap:round; stroke-linejoin:round;">
<path d="M82677 77955
L82677 78742
" />
</g>
<g style="fill:#000000; fill-opacity:0.0; 
stroke:#000000; stroke-width:39.3701; stroke-opacity:1; 
stroke-linecap:round; stroke-linejoin:round;">
</g>
<g style="fill:#000000; fill-opacity:0.0; 
stroke:#000000; stroke-width:59.0551; stroke-opacity:1; 
stroke-linecap:round; stroke-linejoin:round;">
<path d="M102362 77955
L102362 78742
" />
</g>
<g style="fill:#000000; fill-opacity:0.0; 
stroke:#000000; stroke-width:39.3701; stroke-opacity:1; 
stroke-linecap:round; stroke-linejoin:round;">
</g>
<g style="fill:#000000; fill-opacity:0.0; 
stroke:#000000; stroke-width:59.0551; stroke-opacity:1; 
stroke-linecap:round; stroke-linejoin:round;">
<path d="M14169 78580
L13877 78580
" />
<path d="M14023 78580
L14023 78069
L13974 78142
L13925 78190
L13877 78215
" />
</g>
<g style="fill:#000000; fill-opacity:0.0; 
stroke:#000000; stroke-width:39.3701; stroke-opacity:1; 
stroke-linecap:round; stroke-linejoin:round;">
</g>
<g style="fill:#000000; fill-opacity:0.0; 
stroke:#000000; stroke-width:59.0551; stroke-opacity:1; 
stroke-linecap:round; stroke-linejoin:round;">
<path d="M33562 78117
L33586 78093
L33635 78069
L33757 78069
L33805 78093
L33830 78117
L33854 78166
L33854 78215
L33830 78288
L33537 78580
L33854 78580
" />
</g>
<g style="fill:#000000; fill-opacity:0.0; 
stroke:#000000; stroke-width:39.3701; stroke-opacity:1; 
stroke-linecap:round; stroke-linejoin:round;">
</g>
<g style="fill:#000000; fill-opacity:0.0; 
stroke:#000000; stroke-width:59.0551; stroke-opacity:1; 
stroke-linecap:round; stroke-linejoin:round;">
<path d="M53222 78069
L53539 78069
L53368 78263
L53442 78263
L53490 78288
L53515 78312
L53539 78361
L53539 78483
L53515 78532
L53490 78556
L53442 78580
L53295 78580
L53247 78556
L53222 78532
" />
</g>
<g style="fill:#000000; fill-opacity:0.0; 
stroke:#000000; stroke-width:39.3701; stroke-opacity:1; 
stroke-linecap:round; stroke-linejoin:round;">
</g>
<g style="fill:#000000; fill-opacity:0.0; 
stroke:#000000; stroke-width:59.0551; stroke-opacity:1; 
stroke-linecap:round; stroke-linejoin:round;">
<path d="M73175 78239
L73175 78580
" />
<path d="M73053 78044
L72932 78410
L73248 78410
" />
</g>
<g style="fill:#000000; fill-opacity:0.0; 
stroke:#000000; stroke-width:39.3701; stroke-opacity:1; 
stroke-linecap:round; stroke-linejoin:round;">
</g>
<g style="fill:#000000; fill-opacity:0.0; 
stroke:#000000; stroke-width:59.0551; stroke-opacity:1; 
stroke-linecap:round; stroke-linejoin:round;">
<path d="M92885 78069
L92641 78069
L92617 78312
L92641 78288
L92690 78263
L92812 78263
L92860 78288
L92885 78312
L92909 78361
L92909 78483
L92885 78532
L92860 78556
L92812 78580
L92690 78580
L92641 78556
L92617 78532
" />
</g>
<g style="fill:#000000; fill-opacity:0.0; 
stroke:#000000; stroke-width:39.3701; stroke-opacity:1; 
stroke-linecap:round; stroke-linejoin:round;">
</g>
<g style="fill:#000000; fill-opacity:0.0; 
stroke:#000000; stroke-width:59.0551; stroke-opacity:1; 
stroke-linecap:round; stroke-linejoin:round;">
<path d="M112545 78069
L112448 78069
L112399 78093
L112375 78117
L112326 78190
L112302 78288
L112302 78483
L112326 78532
L112350 78556
L112399 78580
L112497 78580
L112545 78556
L112570 78532
L112594 78483
L112594 78361
L112570 78312
L112545 78288
L112497 78263
L112399 78263
L112350 78288
L112326 78312
L112302 78361
" />
</g>
<g style="fill:#000000; fill-opacity:0.0; 
stroke:#000000; stroke-width:39.3701; stroke-opacity:1; 
stroke-linecap:round; stroke-linejoin:round;">
</g>
<g style="fill:#000000; fill-opacity:0.0; 
stroke:#000000; stroke-width:59.0551; stroke-opacity:1; 
stroke-linecap:round; stroke-linejoin:round;">
<path d="M3937 23622
L4724 23622
" />
</g>
<g style="fill:#000000; fill-opacity:0.0; 
stroke:#000000; stroke-width:39.3701; stroke-opacity:1; 
stroke-linecap:round; stroke-linejoin:round;">
</g>
<g style="fill:#000000; fill-opacity:0.0; 
stroke:#000000; stroke-width:59.0551; stroke-opacity:1; 
stroke-linecap:round; stroke-linejoin:round;">
<path d="M3937 43307
L4724 43307
" />
</g>
<g style="fill:#000000; fill-opacity:0.0; 
stroke:#000000; stroke-width:39.3701; stroke-opacity:1; 
stroke-linecap:round; stroke-linejoin:round;">
</g>
<g style="fill:#000000; fill-opacity:0.0; 
stroke:#000000; stroke-width:59.0551; stroke-opacity:1; 
stroke-linecap:round; stroke-linejoin:round;">
<path d="M3937 62992
L4724 62992
" />
</g>
<g style="fill:#000000; fill-opacity:0.0; 
stroke:#000000; stroke-width:39.3701; stroke-opacity:1; 
stroke-linecap:round; stroke-linejoin:round;">
</g>
<g style="fill:#000000; fill-opacity:0.0; 
stroke:#000000; stroke-width:59.0551; stroke-opacity:1; 
stroke-linecap:round; stroke-linejoin:round;">
<path d="M4208 13864
L4452 13864
" />
<path d="M4160 14011
L4330 13499
L4501 14011
" />
</g>
<g style="fill:#000000; fill-opacity:0.0; 
stroke:#000000; stroke-width:39.3701; stroke-opacity:1; 
stroke-linecap:round; stroke-linejoin:round;">
</g>
<g style="fill:#000000; fill-opacity:0.0; 
stroke:#000000; stroke-width:59.0551; stroke-opacity:1; 
stroke-linecap:round; stroke-linejoin:round;">
<path d="M4367 33428
L4440 33452
L4464 33476
L4489 33525
L4489 33598
L4464 33647
L4440 33671
L4391 33696
L4196 33696
L4196 33184
L4367 33184
L4416 33208
L4440 33233
L4464 33281
L4464 33330
L4440 33379
L4416 33403
L4367 33428
L4196 33428
" />
</g>
<g style="fill:#000000; fill-opacity:0.0; 
stroke:#000000; stroke-width:39.3701; stroke-opacity:1; 
stroke-linecap:round; stroke-linejoin:round;">
</g>
<g style="fill:#000000; fill-opacity:0.0; 
stroke:#000000; stroke-width:59.0551; stroke-opacity:1; 
stroke-linecap:round; stroke-linejoin:round;">
<path d="M4489 53332
L4464 53356
L4391 53381
L4342 53381
L4269 53356
L4221 53308
L4196 53259
L4172 53161
L4172 53088
L4196 52991
L4221 52942
L4269 52893
L4342 52869
L4391 52869
L4464 52893
L4489 52918
" />
</g>
<g style="fill:#000000; fill-opacity:0.0; 
stroke:#000000; stroke-width:39.3701; stroke-opacity:1; 
stroke-linecap:round; stroke-linejoin:round;">
</g>
<g style="fill:#000000; fill-opacity:0.0; 
stroke:#000000; stroke-width:59.0551; stroke-opacity:1; 
stroke-linecap:round; stroke-linejoin:round;">
<path d="M4196 73066
L4196 72554
L4318 72554
L4391 72578
L4440 72627
L4464 72676
L4489 72773
L4489 72846
L4464 72944
L4440 72993
L4391 73041
L4318 73066
L4196 73066
" />
</g>
<g style="fill:#000000; fill-opacity:0.0; 
stroke:#000000; stroke-width:39.3701; stroke-opacity:1; 
stroke-linecap:round; stroke-linejoin:round;">
</g>
<g style="fill:#000000; fill-opacity:0.0; 
stroke:#000000; stroke-width:59.0551; stroke-opacity:1; 
stroke-linecap:round; stroke-linejoin:round;">
<path d="M112992 23622
L112205 23622
" />
</g>
<g style="fill:#000000; fill-opacity:0.0; 
stroke:#000000; stroke-width:39.3701; stroke-opacity:1; 
stroke-linecap:round; stroke-linejoin:round;">
</g>
<g style="fill:#000000; fill-opacity:0.0; 
stroke:#000000; stroke-width:59.0551; stroke-opacity:1; 
stroke-linecap:round; stroke-linejoin:round;">
<path d="M112992 43307
L112205 43307
" />
</g>
<g style="fill:#000000; fill-opacity:0.0; 
stroke:#000000; stroke-width:39.3701; stroke-opacity:1; 
stroke-linecap:round; stroke-linejoin:round;">
</g>
<g style="fill:#000000; fill-opacity:0.0; 
stroke:#000000; stroke-width:59.0551; stroke-opacity:1; 
stroke-linecap:round; stroke-linejoin:round;">
<path d="M112992 62992
L112205 62992
" />
</g>
<g style="fill:#000000; fill-opacity:0.0; 
stroke:#000000; stroke-width:39.3701; stroke-opacity:1; 
stroke-linecap:round; stroke-linejoin:round;">
</g>
<g style="fill:#000000; fill-opacity:0.0; 
stroke:#000000; stroke-width:59.0551; stroke-opacity:1; 
stroke-linecap:round; stroke-linejoin:round;">
<path d="M112477 13864
L112721 13864
" />
<path d="M112428 14011
L112599 13499
L112769 14011
" />
</g>
<g style="fill:#000000; fill-opacity:0.0; 
stroke:#000000; stroke-width:39.3701; stroke-opacity:1; 
stroke-linecap:round; stroke-linejoin:round;">
</g>
<g style="fill:#000000; fill-opacity:0.0; 
stroke:#000000; stroke-width:59.0551; stroke-opacity:1; 
stroke-linecap:round; stroke-linejoin:round;">
<path d="M112635 33428
L112708 33452
L112733 33476
L112757 33525
L112757 33598
L112733 33647
L112708 33671
L112660 33696
L112465 33696
L112465 33184
L112635 33184
L112684 33208
L112708 33233
L112733 33281
L112733 33330
L112708 33379
L112684 33403
L112635 33428
L112465 33428
" />
</g>
<g style="fill:#000000; fill-opacity:0.0; 
stroke:#000000; stroke-width:39.3701; stroke-opacity:1; 
stroke-linecap:round; stroke-linejoin:round;">
</g>
<g style="fill:#000000; fill-opacity:0.0; 
stroke:#000000; stroke-width:59.0551; stroke-opacity:1; 
stroke-linecap:round; stroke-linejoin:round;">
<path d="M112757 53332
L112733 53356
L112660 53381
L112611 53381
L112538 53356
L112489 53308
L112465 53259
L112440 53161
L112440 53088
L112465 52991
L112489 52942
L112538 52893
L112611 52869
L112660 52869
L112733 52893
L112757 52918
" />
</g>
<g style="fill:#000000; fill-opacity:0.0; 
stroke:#000000; stroke-width:39.3701; stroke-opacity:1; 
stroke-linecap:round; stroke-linejoin:round;">
</g>
<g style="fill:#000000; fill-opacity:0.0; 
stroke:#000000; stroke-width:59.0551; stroke-opacity:1; 
stroke-linecap:round; stroke-linejoin:round;">
<path d="M112465 73066
L112465 72554
L112587 72554
L112660 72578
L112708 72627
L112733 72676
L112757 72773
L112757 72846
L112733 72944
L112708 72993
L112660 73041
L112587 73066
L112465 73066
" />
</g>
<g style="fill:#000000; fill-opacity:0.0; 
stroke:#000000; stroke-width:39.3701; stroke-opacity:1; 
stroke-linecap:round; stroke-linejoin:round;">
</g>
<g style="fill:#000000; fill-opacity:0.0; 
stroke:#000000; stroke-width:59.0551; stroke-opacity:1; 
stroke-linecap:round; stroke-linejoin:round;">
<path d="M78881 76293
L78881 75703
L79022 75703
L79106 75731
L79162 75787
L79190 75843
L79219 75956
L79219 76040
L79190 76153
L79162 76209
L79106 76265
L79022 76293
L78881 76293
" />
<path d="M79725 76293
L79725 75984
L79697 75928
L79640 75899
L79528 75899
L79472 75928
" />
<path d="M79725 76265
L79669 76293
L79528 76293
L79472 76265
L79444 76209
L79444 76153
L79472 76096
L79528 76068
L79669 76068
L79725 76040
" />
<path d="M79922 75899
L80147 75899
" />
<path d="M80006 75703
L80006 76209
L80034 76265
L80090 76293
L80147 76293
" />
<path d="M80568 76265
L80512 76293
L80400 76293
L80343 76265
L80315 76209
L80315 75984
L80343 75928
L80400 75899
L80512 75899
L80568 75928
L80597 75984
L80597 76040
L80315 76096
" />
<path d="M80850 76237
L80878 76265
L80850 76293
L80822 76265
L80850 76237
L80850 76293
" />
<path d="M80850 75928
L80878 75956
L80850 75984
L80822 75956
L80850 75928
L80850 75984
" />
</g>
<g style="fill:#000000; fill-opacity:0.0; 
stroke:#000000; stroke-width:39.3701; stroke-opacity:1; 
stroke-linecap:round; stroke-linejoin:round;">
</g>
<g style="fill:#000000; fill-opacity:0.0; 
stroke:#000000; stroke-width:59.0551; stroke-opacity:1; 
stroke-linecap:round; stroke-linejoin:round;">
<path d="M69685 76577
L112205 76577
" />
</g>
<g style="fill:#000000; fill-opacity:0.0; 
stroke:#000000; stroke-width:39.3701; stroke-opacity:1; 
stroke-linecap:round; stroke-linejoin:round;">
</g>
<g style="fill:#000000; fill-opacity:0.0; 
stroke:#000000; stroke-width:59.0551; stroke-opacity:1; 
stroke-linecap:round; stroke-linejoin:round;">
<path d="M70220 77395
L70220 76805
" />
<path d="M70557 77395
L70304 77058
" />
<path d="M70557 76805
L70220 77142
" />
<path d="M70810 77395
L70810 77002
" />
<path d="M70810 76805
L70782 76833
L70810 76861
L70838 76833
L70810 76805
L70810 76861
" />
<path d="M71429 77339
L71401 77367
L71316 77395
L71260 77395
L71176 77367
L71120 77311
L71091 77255
L71063 77142
L71063 77058
L71091 76946
L71120 76889
L71176 76833
L71260 76805
L71316 76805
L71401 76833
L71429 76861
" />
<path d="M71935 77395
L71935 77086
L71907 77030
L71851 77002
L71738 77002
L71682 77030
" />
<path d="M71935 77367
L71879 77395
L71738 77395
L71682 77367
L71654 77311
L71654 77255
L71682 77199
L71738 77171
L71879 77171
L71935 77142
" />
<path d="M72469 77395
L72469 76805
" />
<path d="M72469 77367
L72413 77395
L72301 77395
L72244 77367
L72216 77339
L72188 77283
L72188 77114
L72216 77058
L72244 77030
L72301 77002
L72413 77002
L72469 77030
" />
<path d="M73201 77086
L73397 77086
" />
<path d="M73482 77395
L73201 77395
L73201 76805
L73482 76805
" />
<path d="M73735 77339
L73763 77367
L73735 77395
L73707 77367
L73735 77339
L73735 77395
" />
<path d="M74016 77395
L74016 76805
L74157 76805
L74241 76833
L74297 76889
L74325 76946
L74354 77058
L74354 77142
L74325 77255
L74297 77311
L74241 77367
L74157 77395
L74016 77395
" />
<path d="M74607 77339
L74635 77367
L74607 77395
L74579 77367
L74607 77339
L74607 77395
" />
<path d="M74860 77227
L75141 77227
" />
<path d="M74804 77395
L75000 76805
L75197 77395
" />
<path d="M75394 77339
L75422 77367
L75394 77395
L75366 77367
L75394 77339
L75394 77395
" />
<path d="M76575 77395
L76575 76805
" />
<path d="M76631 77171
L76800 77395
" />
<path d="M76800 77002
L76575 77227
" />
<path d="M77053 77395
L77053 77002
" />
<path d="M77053 76805
L77025 76833
L77053 76861
L77081 76833
L77053 76805
L77053 76861
" />
<path d="M77588 77367
L77531 77395
L77419 77395
L77363 77367
L77334 77339
L77306 77283
L77306 77114
L77334 77058
L77363 77030
L77419 77002
L77531 77002
L77588 77030
" />
<path d="M78094 77395
L78094 77086
L78066 77030
L78009 77002
L77897 77002
L77841 77030
" />
<path d="M78094 77367
L78037 77395
L77897 77395
L77841 77367
L77813 77311
L77813 77255
L77841 77199
L77897 77171
L78037 77171
L78094 77142
" />
<path d="M78628 77395
L78628 76805
" />
<path d="M78628 77367
L78572 77395
L78459 77395
L78403 77367
L78375 77339
L78347 77283
L78347 77114
L78375 77058
L78403 77030
L78459 77002
L78572 77002
L78628 77030
" />
<path d="M79528 77620
L79500 77592
L79444 77508
L79415 77452
L79387 77367
L79359 77227
L79359 77114
L79387 76974
L79415 76889
L79444 76833
L79500 76749
L79528 76721
" />
<path d="M79725 76861
L79753 76833
L79809 76805
L79950 76805
L80006 76833
L80034 76861
L80062 76917
L80062 76974
L80034 77058
L79697 77395
L80062 77395
" />
<path d="M80428 76805
L80484 76805
L80540 76833
L80568 76861
L80597 76917
L80625 77030
L80625 77171
L80597 77283
L80568 77339
L80540 77367
L80484 77395
L80428 77395
L80372 77367
L80343 77339
L80315 77283
L80287 77171
L80287 77030
L80315 76917
L80343 76861
L80372 76833
L80428 76805
" />
<path d="M81187 77395
L80850 77395
" />
<path d="M81018 77395
L81018 76805
L80962 76889
L80906 76946
L80850 76974
" />
<path d="M81693 77002
L81693 77395
" />
<path d="M81553 76777
L81412 77199
L81778 77199
" />
<path d="M82003 77171
L82453 77171
" />
<path d="M82734 77002
L82734 77508
L82706 77564
L82649 77592
L82621 77592
" />
<path d="M82734 76805
L82706 76833
L82734 76861
L82762 76833
L82734 76805
L82734 76861
" />
<path d="M83268 77002
L83268 77395
" />
<path d="M83015 77002
L83015 77311
L83043 77367
L83099 77395
L83184 77395
L83240 77367
L83268 77339
" />
<path d="M83634 77395
L83577 77367
L83549 77311
L83549 76805
" />
<path d="M83859 77171
L84309 77171
" />
<path d="M84899 77395
L84562 77395
" />
<path d="M84730 77395
L84730 76805
L84674 76889
L84618 76946
L84562 76974
" />
<path d="M85405 76805
L85293 76805
L85237 76833
L85208 76861
L85152 76946
L85124 77058
L85124 77283
L85152 77339
L85180 77367
L85237 77395
L85349 77395
L85405 77367
L85433 77339
L85462 77283
L85462 77142
L85433 77086
L85405 77058
L85349 77030
L85237 77030
L85180 77058
L85152 77086
L85124 77142
" />
<path d="M86361 77086
L86446 77114
L86474 77142
L86502 77199
L86502 77283
L86474 77339
L86446 77367
L86390 77395
L86165 77395
L86165 76805
L86361 76805
L86418 76833
L86446 76861
L86474 76917
L86474 76974
L86446 77030
L86418 77058
L86361 77086
L86165 77086
" />
<path d="M86699 76805
L87093 76805
L86699 77395
L87093 77395
" />
<path d="M87655 77395
L87458 77114
" />
<path d="M87318 77395
L87318 76805
L87543 76805
L87599 76833
L87627 76861
L87655 76917
L87655 77002
L87627 77058
L87599 77086
L87543 77114
L87318 77114
" />
<path d="M88611 77002
L88611 77395
" />
<path d="M88358 77002
L88358 77311
L88386 77367
L88442 77395
L88527 77395
L88583 77367
L88611 77339
" />
<path d="M88892 77002
L88892 77395
" />
<path d="M88892 77058
L88921 77030
L88977 77002
L89061 77002
L89117 77030
L89145 77086
L89145 77395
" />
<path d="M89427 77395
L89427 76805
" />
<path d="M89483 77171
L89652 77395
" />
<path d="M89652 77002
L89427 77227
" />
<path d="M89905 77002
L89905 77395
" />
<path d="M89905 77058
L89933 77030
L89989 77002
L90073 77002
L90130 77030
L90158 77086
L90158 77395
" />
<path d="M90523 77395
L90467 77367
L90439 77339
L90411 77283
L90411 77114
L90439 77058
L90467 77030
L90523 77002
L90608 77002
L90664 77030
L90692 77058
L90720 77114
L90720 77283
L90692 77339
L90664 77367
L90608 77395
L90523 77395
" />
<path d="M90917 77002
L91030 77395
L91142 77114
L91255 77395
L91367 77002
" />
<path d="M91592 77002
L91592 77395
" />
<path d="M91592 77058
L91620 77030
L91676 77002
L91761 77002
L91817 77030
L91845 77086
L91845 77395
" />
<path d="M92070 77620
L92098 77592
L92154 77508
L92183 77452
L92211 77367
L92239 77227
L92239 77114
L92211 76974
L92183 76889
L92154 76833
L92098 76749
L92070 76721
" />
<path d="M92520 77171
L92970 77171
" />
<path d="M93251 77002
L93251 77592
" />
<path d="M93251 77030
L93307 77002
L93420 77002
L93476 77030
L93504 77058
L93532 77114
L93532 77283
L93504 77339
L93476 77367
L93420 77395
L93307 77395
L93251 77367
" />
<path d="M93786 77395
L93786 77002
" />
<path d="M93786 77114
L93814 77058
L93842 77030
L93898 77002
L93954 77002
" />
<path d="M94235 77395
L94179 77367
L94151 77339
L94123 77283
L94123 77114
L94151 77058
L94179 77030
L94235 77002
L94320 77002
L94376 77030
L94404 77058
L94432 77114
L94432 77283
L94404 77339
L94376 77367
L94320 77395
L94235 77395
" />
<path d="M94938 77395
L94938 76805
" />
<path d="M94938 77367
L94882 77395
L94770 77395
L94714 77367
L94685 77339
L94657 77283
L94657 77114
L94685 77058
L94714 77030
L94770 77002
L94882 77002
L94938 77030
" />
<path d="M95473 77002
L95473 77395
" />
<path d="M95220 77002
L95220 77311
L95248 77367
L95304 77395
L95388 77395
L95445 77367
L95473 77339
" />
<path d="M96007 77367
L95951 77395
L95838 77395
L95782 77367
L95754 77339
L95726 77283
L95726 77114
L95754 77058
L95782 77030
L95838 77002
L95951 77002
L96007 77030
" />
<path d="M96176 77002
L96401 77002
" />
<path d="M96260 76805
L96260 77311
L96288 77367
L96345 77395
L96401 77395
" />
</g>
<g style="fill:#000000; fill-opacity:0.0; 
stroke:#000000; stroke-width:39.3701; stroke-opacity:1; 
stroke-linecap:round; stroke-linejoin:round;">
</g>
<g style="fill:#000000; fill-opacity:0.0; 
stroke:#000000; stroke-width:59.0551; stroke-opacity:1; 
stroke-linecap:round; stroke-linejoin:round;">
<path d="M69685 75396
L112205 75396
" />
</g>
<g style="fill:#000000; fill-opacity:0.0; 
stroke:#000000; stroke-width:39.3701; stroke-opacity:1; 
stroke-linecap:round; stroke-linejoin:round;">
</g>
<g style="fill:#000000; fill-opacity:0.0; 
stroke:#000000; stroke-width:118.11; stroke-opacity:1; 
stroke-linecap:round; stroke-linejoin:round;">
<path d="M104022 76293
L103825 76012
" />
<path d="M103684 76293
L103684 75703
L103909 75703
L103965 75731
L103994 75759
L104022 75815
L104022 75899
L103994 75956
L103965 75984
L103909 76012
L103684 76012
" />
<path d="M104500 76265
L104444 76293
L104331 76293
L104275 76265
L104247 76209
L104247 75984
L104275 75928
L104331 75899
L104444 75899
L104500 75928
L104528 75984
L104528 76040
L104247 76096
" />
<path d="M104725 75899
L104865 76293
L105006 75899
" />
<path d="M105231 76237
L105259 76265
L105231 76293
L105203 76265
L105231 76237
L105231 76293
" />
<path d="M105231 75928
L105259 75956
L105231 75984
L105203 75956
L105231 75928
L105231 75984
" />
</g>
<g style="fill:#000000; fill-opacity:0.0; 
stroke:#000000; stroke-width:39.3701; stroke-opacity:1; 
stroke-linecap:round; stroke-linejoin:round;">
</g>
<g style="fill:#000000; fill-opacity:0.0; 
stroke:#000000; stroke-width:59.0551; stroke-opacity:1; 
stroke-linecap:round; stroke-linejoin:round;">
<path d="M70192 76265
L70276 76293
L70417 76293
L70473 76265
L70501 76237
L70529 76181
L70529 76124
L70501 76068
L70473 76040
L70417 76012
L70304 75984
L70248 75956
L70220 75928
L70192 75871
L70192 75815
L70220 75759
L70248 75731
L70304 75703
L70445 75703
L70529 75731
" />
<path d="M70782 76293
L70782 75899
" />
<path d="M70782 75703
L70754 75731
L70782 75759
L70810 75731
L70782 75703
L70782 75759
" />
<path d="M71007 75899
L71316 75899
L71007 76293
L71316 76293
" />
<path d="M71766 76265
L71710 76293
L71598 76293
L71541 76265
L71513 76209
L71513 75984
L71541 75928
L71598 75899
L71710 75899
L71766 75928
L71795 75984
L71795 76040
L71513 76096
" />
<path d="M72048 76237
L72076 76265
L72048 76293
L72019 76265
L72048 76237
L72048 76293
" />
<path d="M72048 75928
L72076 75956
L72048 75984
L72019 75956
L72048 75928
L72048 75984
" />
<path d="M72751 76124
L73032 76124
" />
<path d="M72694 76293
L72891 75703
L73088 76293
" />
<path d="M73538 75899
L73538 76293
" />
<path d="M73397 75674
L73257 76096
L73622 76096
" />
</g>
<g style="fill:#000000; fill-opacity:0.0; 
stroke:#000000; stroke-width:39.3701; stroke-opacity:1; 
stroke-linecap:round; stroke-linejoin:round;">
</g>
<g style="fill:#000000; fill-opacity:0.0; 
stroke:#000000; stroke-width:59.0551; stroke-opacity:1; 
stroke-linecap:round; stroke-linejoin:round;">
<path d="M103684 77395
L103684 76805
" />
<path d="M104219 77395
L104219 76805
" />
<path d="M104219 77367
L104162 77395
L104050 77395
L103994 77367
L103965 77339
L103937 77283
L103937 77114
L103965 77058
L103994 77030
L104050 77002
L104162 77002
L104219 77030
" />
<path d="M104500 77339
L104528 77367
L104500 77395
L104472 77367
L104500 77339
L104500 77395
" />
<path d="M104500 77030
L104528 77058
L104500 77086
L104472 77058
L104500 77030
L104500 77086
" />
<path d="M105540 77395
L105203 77395
" />
<path d="M105372 77395
L105372 76805
L105315 76889
L105259 76946
L105203 76974
" />
<path d="M106215 76777
L105709 77536
" />
<path d="M106721 77395
L106384 77395
" />
<path d="M106553 77395
L106553 76805
L106496 76889
L106440 76946
L106384 76974
" />
</g>
<g style="fill:#000000; fill-opacity:0.0; 
stroke:#000000; stroke-width:39.3701; stroke-opacity:1; 
stroke-linecap:round; stroke-linejoin:round;">
</g>
<g style="fill:#000000; fill-opacity:0.0; 
stroke:#000000; stroke-width:59.0551; stroke-opacity:1; 
stroke-linecap:round; stroke-linejoin:round;">
<path d="M69685 73821
L112205 73821
" />
</g>
<g style="fill:#000000; fill-opacity:0.0; 
stroke:#000000; stroke-width:39.3701; stroke-opacity:1; 
stroke-linecap:round; stroke-linejoin:round;">
</g>
<g style="fill:#000000; fill-opacity:0.0; 
stroke:#000000; stroke-width:157.48; stroke-opacity:1; 
stroke-linecap:round; stroke-linejoin:round;">
<path d="M70257 74099
L70707 74099
" />
<path d="M70384 74886
L70482 74099
" />
<path d="M70871 74886
L70937 74361
" />
<path d="M70970 74099
L70927 74136
L70960 74174
L71002 74136
L70970 74099
L70960 74174
" />
<path d="M71199 74361
L71499 74361
" />
<path d="M71345 74099
L71260 74774
L71288 74849
L71359 74886
L71434 74886
" />
<path d="M71809 74886
L71738 74849
L71710 74774
L71795 74099
" />
<path d="M72413 74849
L72334 74886
L72184 74886
L72113 74849
L72085 74774
L72123 74474
L72169 74399
L72249 74361
L72399 74361
L72469 74399
L72498 74474
L72488 74549
L72104 74624
" />
<path d="M72793 74811
L72826 74849
L72783 74886
L72751 74849
L72793 74811
L72783 74886
" />
<path d="M72844 74399
L72877 74436
L72835 74474
L72802 74436
L72844 74399
L72835 74474
" />
</g>
<g style="fill:#000000; fill-opacity:0.0; 
stroke:#000000; stroke-width:39.3701; stroke-opacity:1; 
stroke-linecap:round; stroke-linejoin:round;">
</g>
<g style="fill:#000000; fill-opacity:0.0; 
stroke:#000000; stroke-width:59.0551; stroke-opacity:1; 
stroke-linecap:round; stroke-linejoin:round;">
<path d="M70417 73070
L70220 73070
" />
<path d="M70220 73380
L70220 72789
L70501 72789
" />
<path d="M70726 73380
L70726 72986
" />
<path d="M70726 72789
L70698 72817
L70726 72845
L70754 72817
L70726 72789
L70726 72845
" />
<path d="M71091 73380
L71035 73352
L71007 73295
L71007 72789
" />
<path d="M71541 73352
L71485 73380
L71373 73380
L71316 73352
L71288 73295
L71288 73070
L71316 73014
L71373 72986
L71485 72986
L71541 73014
L71570 73070
L71570 73127
L71288 73183
" />
<path d="M71823 73323
L71851 73352
L71823 73380
L71795 73352
L71823 73323
L71823 73380
" />
<path d="M71823 73014
L71851 73042
L71823 73070
L71795 73042
L71823 73014
L71823 73070
" />
<path d="M72526 73211
L72807 73211
" />
<path d="M72469 73380
L72666 72789
L72863 73380
" />
<path d="M73060 73380
L73060 72986
" />
<path d="M73060 73042
L73088 73014
L73144 72986
L73229 72986
L73285 73014
L73313 73070
L73313 73380
" />
<path d="M73313 73070
L73341 73014
L73397 72986
L73482 72986
L73538 73014
L73566 73070
L73566 73380
" />
<path d="M73847 72986
L73847 73577
" />
<path d="M73847 73014
L73904 72986
L74016 72986
L74072 73014
L74100 73042
L74129 73099
L74129 73267
L74100 73323
L74072 73352
L74016 73380
L73904 73380
L73847 73352
" />
<path d="M74466 73380
L74410 73352
L74382 73295
L74382 72789
" />
<path d="M74691 73380
L74691 72986
" />
<path d="M74691 72789
L74663 72817
L74691 72845
L74719 72817
L74691 72789
L74691 72845
" />
<path d="M75282 72817
L75225 72789
L75141 72789
L75057 72817
L75000 72874
L74972 72930
L74944 73042
L74944 73127
L74972 73239
L75000 73295
L75057 73352
L75141 73380
L75197 73380
L75282 73352
L75310 73323
L75310 73127
L75197 73127
" />
<path d="M75535 73352
L75619 73380
L75760 73380
L75816 73352
L75844 73323
L75872 73267
L75872 73211
L75844 73155
L75816 73127
L75760 73099
L75647 73070
L75591 73042
L75563 73014
L75535 72958
L75535 72902
L75563 72845
L75591 72817
L75647 72789
L75788 72789
L75872 72817
" />
<path d="M76463 73380
L76266 73099
" />
<path d="M76125 73380
L76125 72789
L76350 72789
L76406 72817
L76435 72845
L76463 72902
L76463 72986
L76435 73042
L76406 73070
L76350 73099
L76125 73099
" />
<path d="M76716 73323
L76744 73352
L76716 73380
L76688 73352
L76716 73323
L76716 73380
" />
<path d="M76997 73380
L76997 72789
" />
<path d="M77053 73155
L77222 73380
" />
<path d="M77222 72986
L76997 73211
" />
<path d="M77475 73380
L77475 72986
" />
<path d="M77475 72789
L77447 72817
L77475 72845
L77503 72817
L77475 72789
L77475 72845
" />
<path d="M78009 73352
L77953 73380
L77841 73380
L77784 73352
L77756 73323
L77728 73267
L77728 73099
L77756 73042
L77784 73014
L77841 72986
L77953 72986
L78009 73014
" />
<path d="M78516 73380
L78516 73070
L78487 73014
L78431 72986
L78319 72986
L78262 73014
" />
<path d="M78516 73352
L78459 73380
L78319 73380
L78262 73352
L78234 73295
L78234 73239
L78262 73183
L78319 73155
L78459 73155
L78516 73127
" />
<path d="M79050 73380
L79050 72789
" />
<path d="M79050 73352
L78994 73380
L78881 73380
L78825 73352
L78797 73323
L78769 73267
L78769 73099
L78797 73042
L78825 73014
L78881 72986
L78994 72986
L79050 73014
" />
<path d="M79190 73436
L79640 73436
" />
<path d="M79781 72986
L79781 73577
" />
<path d="M79781 73014
L79837 72986
L79950 72986
L80006 73014
L80034 73042
L80062 73099
L80062 73267
L80034 73323
L80006 73352
L79950 73380
L79837 73380
L79781 73352
" />
<path d="M80568 73352
L80512 73380
L80400 73380
L80343 73352
L80315 73323
L80287 73267
L80287 73099
L80315 73042
L80343 73014
L80400 72986
L80512 72986
L80568 73014
" />
<path d="M80822 73380
L80822 72789
" />
<path d="M80822 73014
L80878 72986
L80990 72986
L81046 73014
L81075 73042
L81103 73099
L81103 73267
L81075 73323
L81046 73352
L80990 73380
L80878 73380
L80822 73352
" />
</g>
<g style="fill:#000000; fill-opacity:0.0; 
stroke:#000000; stroke-width:39.3701; stroke-opacity:1; 
stroke-linecap:round; stroke-linejoin:round;">
</g>
<g style="fill:#000000; fill-opacity:0.0; 
stroke:#000000; stroke-width:59.0551; stroke-opacity:1; 
stroke-linecap:round; stroke-linejoin:round;">
<path d="M69685 71459
L112205 71459
" />
</g>
<g style="fill:#000000; fill-opacity:0.0; 
stroke:#000000; stroke-width:39.3701; stroke-opacity:1; 
stroke-linecap:round; stroke-linejoin:round;">
</g>
<g style="fill:#000000; fill-opacity:0.0; 
stroke:#000000; stroke-width:59.0551; stroke-opacity:1; 
stroke-linecap:round; stroke-linejoin:round;">
<path d="M70192 72289
L70276 72317
L70417 72317
L70473 72289
L70501 72260
L70529 72204
L70529 72148
L70501 72092
L70473 72064
L70417 72036
L70304 72007
L70248 71979
L70220 71951
L70192 71895
L70192 71839
L70220 71782
L70248 71754
L70304 71726
L70445 71726
L70529 71754
" />
<path d="M70782 72317
L70782 71726
" />
<path d="M71035 72317
L71035 72007
L71007 71951
L70951 71923
L70867 71923
L70810 71951
L70782 71979
" />
<path d="M71541 72289
L71485 72317
L71373 72317
L71316 72289
L71288 72232
L71288 72007
L71316 71951
L71373 71923
L71485 71923
L71541 71951
L71570 72007
L71570 72064
L71288 72120
" />
<path d="M72048 72289
L71991 72317
L71879 72317
L71823 72289
L71795 72232
L71795 72007
L71823 71951
L71879 71923
L71991 71923
L72048 71951
L72076 72007
L72076 72064
L71795 72120
" />
<path d="M72244 71923
L72469 71923
" />
<path d="M72329 71726
L72329 72232
L72357 72289
L72413 72317
L72469 72317
" />
<path d="M72666 72260
L72694 72289
L72666 72317
L72638 72289
L72666 72260
L72666 72317
" />
<path d="M72666 71951
L72694 71979
L72666 72007
L72638 71979
L72666 71951
L72666 72007
" />
</g>
<g style="fill:#000000; fill-opacity:0.0; 
stroke:#000000; stroke-width:39.3701; stroke-opacity:1; 
stroke-linecap:round; stroke-linejoin:round;">
</g>
<g style="fill:#000000; fill-opacity:0.0; 
stroke:#000000; stroke-width:59.0551; stroke-opacity:1; 
stroke-linecap:round; stroke-linejoin:round;">
<path d="M77559 75396
L77559 76577
" />
</g>
<g style="fill:#000000; fill-opacity:0.0; 
stroke:#000000; stroke-width:39.3701; stroke-opacity:1; 
stroke-linecap:round; stroke-linejoin:round;">
</g>
<g style="fill:#000000; fill-opacity:0.0; 
stroke:#000000; stroke-width:59.0551; stroke-opacity:1; 
stroke-linecap:round; stroke-linejoin:round;">
<path d="M102756 75396
L102756 77955
" />
</g>
<g style="fill:#840000; fill-opacity:0.0; 
stroke:#840000; stroke-width:39.3701; stroke-opacity:1; 
stroke-linecap:round; stroke-linejoin:round;">
</g>
<g style="fill:#840000; fill-opacity:1.0; 
stroke:#840000; stroke-width:39.3701; stroke-opacity:1; 
stroke-linecap:round; stroke-linejoin:round;">
<polyline style="fill-rule:evenodd;"
points="56236,49236
55763,49236
55763,48763
56236,48763
56236,49236
" /> 
<circle cx="56000" cy="47031.5" r="236.22" /> 
<circle cx="58000" cy="49000" r="780.315" /> 
<circle cx="58000" cy="46000" r="780.315" /> 
<circle cx="49000" cy="46000" r="373.815" /> 
<circle cx="49000" cy="43000" r="373.815" /> 
<circle cx="48000" cy="43000" r="373.815" /> 
<circle cx="48000" cy="46000" r="373.815" /> 
<circle cx="50000" cy="46000" r="373.815" /> 
<circle cx="50000" cy="43000" r="373.815" /> 
<circle cx="50000" cy="42000" r="373.815" /> 
<circle cx="47000" cy="42000" r="373.815" /> 
<circle cx="47000" cy="47000" r="373.815" /> 
<circle cx="50000" cy="47000" r="373.815" /> 
<circle cx="55000" cy="45000" r="373.815" /> 
<circle cx="55000" cy="48000" r="373.815" /> 
<circle cx="56000" cy="43000" r="373.815" /> 
<circle cx="56000" cy="46000" r="373.815" /> 
<circle cx="47000" cy="48000" r="373.815" /> 
<circle cx="50000" cy="48000" r="373.815" /> 
<circle cx="55000" cy="40000" r="373.815" /> 
<circle cx="55000" cy="43000" r="373.815" /> 
</g>
<g style="fill:#840000; fill-opacity:1.0; 
stroke:#840000; stroke-width:629.921; stroke-opacity:1; 
stroke-linecap:round; stroke-linejoin:round;">
</g>
<g style="fill:#840000; fill-opacity:0.0; 
stroke:#840000; stroke-width:629.921; stroke-opacity:1; 
stroke-linecap:round; stroke-linejoin:round;">
<path d="M50862 42000
L51137 42000
" />
<path d="M50862 43000
L51137 43000
" />
<path d="M50862 44000
L51137 44000
" />
<path d="M50862 45000
L51137 45000
" />
<path d="M50862 46000
L51137 46000
" />
<path d="M50862 47000
L51137 47000
" />
<path d="M50862 48000
L51137 48000
" />
<path d="M53862 48000
L54137 48000
" />
<path d="M53862 47000
L54137 47000
" />
<path d="M53862 46000
L54137 46000
" />
<path d="M53862 45000
L54137 45000
" />
<path d="M53862 44000
L54137 44000
" />
<path d="M53862 43000
L54137 43000
" />
<path d="M53862 42000
L54137 42000
" />
</g>
<g style="fill:#840000; fill-opacity:0.0; 
stroke:#840000; stroke-width:39.3701; stroke-opacity:1; 
stroke-linecap:round; stroke-linejoin:round;">
</g>
<g style="fill:#840000; fill-opacity:1.0; 
stroke:#840000; stroke-width:39.3701; stroke-opacity:1; 
stroke-linecap:round; stroke-linejoin:round;">
<polyline style="fill-rule:evenodd;"
points="56763,44236
56763,43763
57236,43763
57236,44236
56763,44236
" /> 
<circle cx="58968.5" cy="44000" r="236.22" /> 
<polyline style="fill-rule:evenodd;"
points="59374,39507
59374,40492
58625,40492
58625,39507
59374,39507
" /> 
</g>
<g style="fill:#840000; fill-opacity:1.0; 
stroke:#840000; stroke-width:787.402; stroke-opacity:1; 
stroke-linecap:round; stroke-linejoin:round;">
</g>
<g style="fill:#840000; fill-opacity:0.0; 
stroke:#840000; stroke-width:787.402; stroke-opacity:1; 
stroke-linecap:round; stroke-linejoin:round;">
<path d="M58000 40118
L58000 39881
" />
<path d="M57000 40118
L57000 39881
" />
</g>
<g style="fill:#840000; fill-opacity:0.0; 
stroke:#840000; stroke-width:39.3701; stroke-opacity:1; 
stroke-linecap:round; stroke-linejoin:round;">
</g>
<g style="fill:#840000; fill-opacity:1.0; 
stroke:#840000; stroke-width:39.3701; stroke-opacity:1; 
stroke-linecap:round; stroke-linejoin:round;">
<circle cx="59000" cy="42000" r="373.815" /> 
<circle cx="56000" cy="42000" r="373.815" /> 
</g>
<g style="fill:#008400; fill-opacity:1.0; 
stroke:#008400; stroke-width:100; stroke-opacity:1; 
stroke-linecap:round; stroke-linejoin:round;">
</g>
<g style="fill:#008400; fill-opacity:0.0; 
stroke:#008400; stroke-width:100; stroke-opacity:1; 
stroke-linecap:round; stroke-linejoin:round;">
<path d="M56000 48000
L54500 46000
" />
<path d="M54500 46000
L54000 46000
" />
<path d="M56000 49000
L56000 48000
" />
<path d="M55000 49000
L54000 50000
" />
<path d="M54000 50000
L45500 50000
" />
<path d="M45500 50000
L45500 44000
" />
<path d="M45500 44000
L47000 42500
" />
<path d="M47000 42500
L47000 42000
" />
<path d="M56000 49000
L55000 49000
" />
<path d="M58000 49000
L56000 49000
" />
<path d="M57500 45000
L57000 44000
" />
<path d="M56000 46000
L57500 45000
" />
<path d="M58000 46000
L57500 45000
" />
<path d="M56000 47031
L56000 46000
" />
<path d="M55000 46000
L54000 45000
" />
<path d="M56000 46000
L55000 46000
" />
<path d="M53000 45000
L53000 49500
" />
<path d="M53000 49500
L46000 49500
" />
<path d="M46000 49500
L46000 47500
" />
<path d="M46000 47500
L47000 47000
" />
<path d="M54000 45000
L53000 45000
" />
<path d="M47000 47000
L48000 46000
" />
<path d="M47000 47000
L47000 47000
" />
<path d="M57000 44000
L57000 40000
" />
<path d="M52000 44000
L51000 45000
" />
<path d="M52000 41500
L52000 44000
" />
<path d="M54500 39000
L52000 41500
" />
<path d="M58000 39000
L54500 39000
" />
<path d="M58000 39500
L58000 39000
" />
<path d="M58000 40000
L58000 39500
" />
<path d="M49000 45000
L49000 46000
" />
<path d="M51000 45000
L49000 45000
" />
<path d="M48000 43000
L49000 43000
" />
<path d="M49000 43500
L49500 44000
" />
<path d="M49500 44000
L51000 44000
" />
<path d="M49000 43000
L49000 43500
" />
<path d="M50000 46500
L50000 46000
" />
<path d="M50000 47000
L50000 46500
" />
<path d="M50000 46000
L51000 46000
" />
<path d="M51000 43000
L50000 43000
" />
<path d="M51000 43000
L51000 42000
" />
<path d="M51000 42000
L50000 42000
" />
<path d="M50000 42000
L50000 43000
" />
<path d="M55250 44000
L55000 45000
" />
<path d="M54000 44000
L55250 44000
" />
<path d="M55250 44000
L56000 43000
" />
<path d="M54000 48000
L55000 48000
" />
<path d="M54000 47000
L54000 48000
" />
<path d="M48000 49000
L52000 49000
" />
<path d="M52000 49000
L52500 48500
" />
<path d="M52500 48500
L52500 44000
" />
<path d="M52500 44000
L53500 43000
" />
<path d="M53500 43000
L54000 43000
" />
<path d="M47000 48000
L48000 49000
" />
<path d="M54000 43000
L55000 43000
" />
<path d="M50000 48000
L51000 48000
" />
<path d="M51000 48000
L51000 47000
" />
<path d="M58968 42031
L59000 42000
" />
<path d="M58968 44000
L58968 42031
" />
<path d="M59000 42000
L59000 40000
" />
<path d="M56000 42000
L54000 42000
" />
<path d="M54000 41000
L55000 40000
" />
<path d="M54000 42000
L54000 41000
" />
</g>
<g style="fill:#FFFFFF; fill-opacity:0.0; 
stroke:#FFFFFF; stroke-width:39.3701; stroke-opacity:1; 
stroke-linecap:round; stroke-linejoin:round;">
</g>
<g style="fill:#FFFFFF; fill-opacity:1.0; 
stroke:#FFFFFF; stroke-width:39.3701; stroke-opacity:1; 
stroke-linecap:round; stroke-linejoin:round;">
<circle cx="56000" cy="49000" r="137.795" /> 
<circle cx="56000" cy="47031.5" r="137.795" /> 
<circle cx="58000" cy="49000" r="580.315" /> 
<circle cx="58000" cy="46000" r="580.315" /> 
<circle cx="49000" cy="46000" r="177.315" /> 
<circle cx="49000" cy="43000" r="177.315" /> 
<circle cx="48000" cy="43000" r="177.315" /> 
<circle cx="48000" cy="46000" r="177.315" /> 
<circle cx="50000" cy="46000" r="177.315" /> 
<circle cx="50000" cy="43000" r="177.315" /> 
<circle cx="50000" cy="42000" r="177.315" /> 
<circle cx="47000" cy="42000" r="177.315" /> 
<circle cx="47000" cy="47000" r="177.315" /> 
<circle cx="50000" cy="47000" r="177.315" /> 
<circle cx="55000" cy="45000" r="177.315" /> 
<circle cx="55000" cy="48000" r="177.315" /> 
<circle cx="56000" cy="43000" r="177.315" /> 
<circle cx="56000" cy="46000" r="177.315" /> 
<circle cx="47000" cy="48000" r="177.315" /> 
<circle cx="50000" cy="48000" r="177.315" /> 
<circle cx="55000" cy="40000" r="177.315" /> 
<circle cx="55000" cy="43000" r="177.315" /> 
<circle cx="51000" cy="42000" r="137.795" /> 
<circle cx="51000" cy="43000" r="137.795" /> 
<circle cx="51000" cy="44000" r="137.795" /> 
<circle cx="51000" cy="45000" r="137.795" /> 
<circle cx="51000" cy="46000" r="137.795" /> 
<circle cx="51000" cy="47000" r="137.795" /> 
<circle cx="51000" cy="48000" r="137.795" /> 
<circle cx="54000" cy="48000" r="137.795" /> 
<circle cx="54000" cy="47000" r="137.795" /> 
<circle cx="54000" cy="46000" r="137.795" /> 
<circle cx="54000" cy="45000" r="137.795" /> 
<circle cx="54000" cy="44000" r="137.795" /> 
<circle cx="54000" cy="43000" r="137.795" /> 
<circle cx="54000" cy="42000" r="137.795" /> 
<circle cx="57000" cy="44000" r="137.795" /> 
<circle cx="58968.5" cy="44000" r="137.795" /> 
<circle cx="59000" cy="40000" r="216.535" /> 
<circle cx="58000" cy="40000" r="216.535" /> 
<circle cx="57000" cy="40000" r="216.535" /> 
<circle cx="59000" cy="42000" r="177.315" /> 
<circle cx="56000" cy="42000" r="177.315" /> 
</g>
<g style="fill:#840000; fill-opacity:1.0; 
stroke:#840000; stroke-width:39.3701; stroke-opacity:1; 
stroke-linecap:round; stroke-linejoin:round;">
<polyline style="fill-rule:evenodd;"
points="56236,49236
55763,49236
55763,48763
56236,48763
56236,49236
" /> 
<circle cx="56000" cy="47031.5" r="236.22" /> 
<circle cx="58000" cy="49000" r="780.315" /> 
<circle cx="58000" cy="46000" r="780.315" /> 
<circle cx="49000" cy="46000" r="373.815" /> 
<circle cx="49000" cy="43000" r="373.815" /> 
<circle cx="48000" cy="43000" r="373.815" /> 
<circle cx="48000" cy="46000" r="373.815" /> 
<circle cx="50000" cy="46000" r="373.815" /> 
<circle cx="50000" cy="43000" r="373.815" /> 
<circle cx="50000" cy="42000" r="373.815" /> 
<circle cx="47000" cy="42000" r="373.815" /> 
<circle cx="47000" cy="47000" r="373.815" /> 
<circle cx="50000" cy="47000" r="373.815" /> 
<circle cx="55000" cy="45000" r="373.815" /> 
<circle cx="55000" cy="48000" r="373.815" /> 
<circle cx="56000" cy="43000" r="373.815" /> 
<circle cx="56000" cy="46000" r="373.815" /> 
<circle cx="47000" cy="48000" r="373.815" /> 
<circle cx="50000" cy="48000" r="373.815" /> 
<circle cx="55000" cy="40000" r="373.815" /> 
<circle cx="55000" cy="43000" r="373.815" /> 
</g>
<g style="fill:#840000; fill-opacity:1.0; 
stroke:#840000; stroke-width:629.921; stroke-opacity:1; 
stroke-linecap:round; stroke-linejoin:round;">
</g>
<g style="fill:#840000; fill-opacity:0.0; 
stroke:#840000; stroke-width:629.921; stroke-opacity:1; 
stroke-linecap:round; stroke-linejoin:round;">
<path d="M50862 42000
L51137 42000
" />
<path d="M50862 43000
L51137 43000
" />
<path d="M50862 44000
L51137 44000
" />
<path d="M50862 45000
L51137 45000
" />
<path d="M50862 46000
L51137 46000
" />
<path d="M50862 47000
L51137 47000
" />
<path d="M50862 48000
L51137 48000
" />
<path d="M53862 48000
L54137 48000
" />
<path d="M53862 47000
L54137 47000
" />
<path d="M53862 46000
L54137 46000
" />
<path d="M53862 45000
L54137 45000
" />
<path d="M53862 44000
L54137 44000
" />
<path d="M53862 43000
L54137 43000
" />
<path d="M53862 42000
L54137 42000
" />
</g>
<g style="fill:#840000; fill-opacity:0.0; 
stroke:#840000; stroke-width:39.3701; stroke-opacity:1; 
stroke-linecap:round; stroke-linejoin:round;">
</g>
<g style="fill:#840000; fill-opacity:1.0; 
stroke:#840000; stroke-width:39.3701; stroke-opacity:1; 
stroke-linecap:round; stroke-linejoin:round;">
<polyline style="fill-rule:evenodd;"
points="56763,44236
56763,43763
57236,43763
57236,44236
56763,44236
" /> 
<circle cx="58968.5" cy="44000" r="236.22" /> 
<polyline style="fill-rule:evenodd;"
points="59374,39507
59374,40492
58625,40492
58625,39507
59374,39507
" /> 
</g>
<g style="fill:#840000; fill-opacity:1.0; 
stroke:#840000; stroke-width:787.402; stroke-opacity:1; 
stroke-linecap:round; stroke-linejoin:round;">
</g>
<g style="fill:#840000; fill-opacity:0.0; 
stroke:#840000; stroke-width:787.402; stroke-opacity:1; 
stroke-linecap:round; stroke-linejoin:round;">
<path d="M58000 40118
L58000 39881
" />
<path d="M57000 40118
L57000 39881
" />
</g>
<g style="fill:#840000; fill-opacity:0.0; 
stroke:#840000; stroke-width:39.3701; stroke-opacity:1; 
stroke-linecap:round; stroke-linejoin:round;">
</g>
<g style="fill:#840000; fill-opacity:1.0; 
stroke:#840000; stroke-width:39.3701; stroke-opacity:1; 
stroke-linecap:round; stroke-linejoin:round;">
<circle cx="59000" cy="42000" r="373.815" /> 
<circle cx="56000" cy="42000" r="373.815" /> 
</g>
<g style="fill:#FFFFFF; fill-opacity:1.0; 
stroke:#FFFFFF; stroke-width:39.3701; stroke-opacity:1; 
stroke-linecap:round; stroke-linejoin:round;">
<circle cx="56000" cy="49000" r="137.795" /> 
<circle cx="56000" cy="47031.5" r="137.795" /> 
<circle cx="58000" cy="49000" r="580.315" /> 
<circle cx="58000" cy="46000" r="580.315" /> 
<circle cx="49000" cy="46000" r="177.315" /> 
<circle cx="49000" cy="43000" r="177.315" /> 
<circle cx="48000" cy="43000" r="177.315" /> 
<circle cx="48000" cy="46000" r="177.315" /> 
<circle cx="50000" cy="46000" r="177.315" /> 
<circle cx="50000" cy="43000" r="177.315" /> 
<circle cx="50000" cy="42000" r="177.315" /> 
<circle cx="47000" cy="42000" r="177.315" /> 
<circle cx="47000" cy="47000" r="177.315" /> 
<circle cx="50000" cy="47000" r="177.315" /> 
<circle cx="55000" cy="45000" r="177.315" /> 
<circle cx="55000" cy="48000" r="177.315" /> 
<circle cx="56000" cy="43000" r="177.315" /> 
<circle cx="56000" cy="46000" r="177.315" /> 
<circle cx="47000" cy="48000" r="177.315" /> 
<circle cx="50000" cy="48000" r="177.315" /> 
<circle cx="55000" cy="40000" r="177.315" /> 
<circle cx="55000" cy="43000" r="177.315" /> 
<circle cx="51000" cy="42000" r="137.795" /> 
<circle cx="51000" cy="43000" r="137.795" /> 
<circle cx="51000" cy="44000" r="137.795" /> 
<circle cx="51000" cy="45000" r="137.795" /> 
<circle cx="51000" cy="46000" r="137.795" /> 
<circle cx="51000" cy="47000" r="137.795" /> 
<circle cx="51000" cy="48000" r="137.795" /> 
<circle cx="54000" cy="48000" r="137.795" /> 
<circle cx="54000" cy="47000" r="137.795" /> 
<circle cx="54000" cy="46000" r="137.795" /> 
<circle cx="54000" cy="45000" r="137.795" /> 
<circle cx="54000" cy="44000" r="137.795" /> 
<circle cx="54000" cy="43000" r="137.795" /> 
<circle cx="54000" cy="42000" r="137.795" /> 
<circle cx="57000" cy="44000" r="137.795" /> 
<circle cx="58968.5" cy="44000" r="137.795" /> 
<circle cx="59000" cy="40000" r="216.535" /> 
<circle cx="58000" cy="40000" r="216.535" /> 
<circle cx="57000" cy="40000" r="216.535" /> 
<circle cx="59000" cy="42000" r="177.315" /> 
<circle cx="56000" cy="42000" r="177.315" /> 
</g>
<g style="fill:#008484; fill-opacity:1.0; 
stroke:#008484; stroke-width:59.0551; stroke-opacity:1; 
stroke-linecap:round; stroke-linejoin:round;">
</g>
<g style="fill:#008484; fill-opacity:0.0; 
stroke:#008484; stroke-width:59.0551; stroke-opacity:1; 
stroke-linecap:round; stroke-linejoin:round;">
<path d="M55606 49393
L55606 46637
" />
<path d="M55606 46637
L56393 46637
" />
<path d="M56393 46637
L56393 49393
" />
<path d="M56393 49393
L55606 49393
" />
<circle cx="58000" cy="49000" r="900" /> 
<circle cx="58000" cy="46000" r="900" /> 
<path d="M48500 45500
L48500 43500
" />
<path d="M48500 43500
L49500 43500
" />
<path d="M49500 43500
L49500 45500
" />
<path d="M49500 45500
L48500 45500
" />
<path d="M48500 43500
L48500 45500
" />
<path d="M48500 45500
L47500 45500
" />
<path d="M47500 45500
L47500 43500
" />
<path d="M47500 43500
L48500 43500
" />
<path d="M49500 45500
L49500 43500
" />
<path d="M49500 43500
L50500 43500
" />
<path d="M50500 43500
L50500 45500
" />
<path d="M50500 45500
L49500 45500
" />
<path d="M49500 42500
L47500 42500
" />
<path d="M47500 42500
L47500 41500
" />
<path d="M47500 41500
L49500 41500
" />
<path d="M49500 41500
L49500 42500
" />
<path d="M47500 46500
L49500 46500
" />
<path d="M49500 46500
L49500 47500
" />
<path d="M49500 47500
L47500 47500
" />
<path d="M47500 47500
L47500 46500
" />
<path d="M55500 45500
L55500 47500
" />
<path d="M55500 47500
L54500 47500
" />
<path d="M54500 47500
L54500 45500
" />
<path d="M54500 45500
L55500 45500
" />
<path d="M56500 43500
L56500 45500
" />
<path d="M56500 45500
L55500 45500
" />
<path d="M55500 45500
L55500 43500
" />
<path d="M55500 43500
L56500 43500
" />
<path d="M47500 47500
L49500 47500
" />
<path d="M49500 47500
L49500 48500
" />
<path d="M49500 48500
L47500 48500
" />
<path d="M47500 48500
L47500 47500
" />
<path d="M55500 40500
L55500 42500
" />
<path d="M55500 42500
L54500 42500
" />
<path d="M54500 42500
L54500 40500
" />
<path d="M54500 40500
L55500 40500
" />
<path d="M51053 41096
L51053 41596
" />
<path d="M53946 41096
L53946 41596
" />
<path d="M53946 48903
L53946 48403
" />
<path d="M51053 48903
L51053 48403
" />
<path d="M51053 41096
L53946 41096
" />
<path d="M51053 48903
L53946 48903
" />
<path d="M51053 41596
L50547 41596
" />
<path d="M56606 43606
L59362 43606
" />
<path d="M59362 43606
L59362 44393
" />
<path d="M59362 44393
L56606 44393
" />
<path d="M56606 44393
L56606 43606
" />
<path d="M59539 41188
L59539 38826
" />
<path d="M59539 38826
L56460 38826
" />
<path d="M56460 38826
L56460 41188
" />
<path d="M56460 41188
L59539 41188
" />
<path d="M59000 38826
L59000 39220
" />
<path d="M59000 39220
L57000 39220
" />
<path d="M57000 39220
L57000 38826
" />
<path d="M59000 39220
L58901 39389
" />
<path d="M58901 39389
L57098 39389
" />
<path d="M57098 39389
L57000 39220
" />
<path d="M58901 38826
L58901 39220
" />
<path d="M57098 38826
L57098 39220
" />
<path d="M59314 41188
L59314 40944
" />
<path d="M59314 40944
L58685 40944
" />
<path d="M58685 40944
L58685 41188
" />
<path d="M58314 41188
L58314 40944
" />
<path d="M58314 40944
L57685 40944
" />
<path d="M57685 40944
L57685 41188
" />
<path d="M57314 41188
L57314 40944
" />
<path d="M57314 40944
L56685 40944
" />
<path d="M56685 40944
L56685 41188
" />
<path d="M58500 42500
L56500 42500
" />
<path d="M56500 42500
L56500 41500
" />
<path d="M56500 41500
L58500 41500
" />
<path d="M58500 41500
L58500 42500
" />
</g>
<g style="fill:#C1C100; fill-opacity:0.0; 
stroke:#C1C100; stroke-width:59.0551; stroke-opacity:1; 
stroke-linecap:round; stroke-linejoin:round;">
<path d="M56140 48065
L56159 48084
L56178 48140
L56178 48178
L56159 48234
L56121 48271
L56084 48290
L56009 48309
L55953 48309
L55878 48290
L55840 48271
L55803 48234
L55784 48178
L55784 48140
L55803 48084
L55821 48065
" />
<path d="M55821 47915
L55803 47896
L55784 47859
L55784 47765
L55803 47728
L55821 47709
L55859 47690
L55896 47690
L55953 47709
L56178 47934
L56178 47690
" />
<path d="M57709 47978
L57709 47584
L57859 47584
L57896 47603
L57915 47621
L57934 47659
L57934 47715
L57915 47753
L57896 47771
L57859 47790
L57709 47790
" />
<path d="M58309 47978
L58084 47978
" />
<path d="M58196 47978
L58196 47584
L58159 47640
L58121 47678
L58084 47696
" />
<path d="M57709 44978
L57709 44584
L57859 44584
L57896 44603
L57915 44621
L57934 44659
L57934 44715
L57915 44753
L57896 44771
L57859 44790
L57709 44790
" />
<path d="M58084 44621
L58103 44603
L58140 44584
L58234 44584
L58271 44603
L58290 44621
L58309 44659
L58309 44696
L58290 44753
L58065 44978
L58309 44978
" />
<path d="M49178 45065
L48990 45196
" />
<path d="M49178 45290
L48784 45290
L48784 45140
L48803 45103
L48821 45084
L48859 45065
L48915 45065
L48953 45084
L48971 45103
L48990 45140
L48990 45290
" />
<path d="M49178 44690
L49178 44915
" />
<path d="M49178 44803
L48784 44803
L48840 44840
L48878 44878
L48896 44915
" />
<path d="M48178 45065
L47990 45196
" />
<path d="M48178 45290
L47784 45290
L47784 45140
L47803 45103
L47821 45084
L47859 45065
L47915 45065
L47953 45084
L47971 45103
L47990 45140
L47990 45290
" />
<path d="M47821 44915
L47803 44896
L47784 44859
L47784 44765
L47803 44728
L47821 44709
L47859 44690
L47896 44690
L47953 44709
L48178 44934
L48178 44690
" />
<path d="M50178 45065
L49990 45196
" />
<path d="M50178 45290
L49784 45290
L49784 45140
L49803 45103
L49821 45084
L49859 45065
L49915 45065
L49953 45084
L49971 45103
L49990 45140
L49990 45290
" />
<path d="M49784 44934
L49784 44690
L49934 44821
L49934 44765
L49953 44728
L49971 44709
L50009 44690
L50103 44690
L50140 44709
L50159 44728
L50178 44765
L50178 44878
L50159 44915
L50140 44934
" />
<path d="M47934 42178
L47803 41990
" />
<path d="M47709 42178
L47709 41784
L47859 41784
L47896 41803
L47915 41821
L47934 41859
L47934 41915
L47915 41953
L47896 41971
L47859 41990
L47709 41990
" />
<path d="M48271 41915
L48271 42178
" />
<path d="M48178 41765
L48084 42046
L48328 42046
" />
<path d="M47934 47178
L47803 46990
" />
<path d="M47709 47178
L47709 46784
L47859 46784
L47896 46803
L47915 46821
L47934 46859
L47934 46915
L47915 46953
L47896 46971
L47859 46990
L47709 46990
" />
<path d="M48290 46784
L48103 46784
L48084 46971
L48103 46953
L48140 46934
L48234 46934
L48271 46953
L48290 46971
L48309 47009
L48309 47103
L48290 47140
L48271 47159
L48234 47178
L48140 47178
L48103 47159
L48084 47140
" />
<path d="M55428 46315
L55240 46446
" />
<path d="M55428 46540
L55034 46540
L55034 46390
L55053 46353
L55071 46334
L55109 46315
L55165 46315
L55203 46334
L55221 46353
L55240 46390
L55240 46540
" />
<path d="M55034 45978
L55034 46053
L55053 46090
L55071 46109
L55128 46146
L55203 46165
L55353 46165
L55390 46146
L55409 46128
L55428 46090
L55428 46015
L55409 45978
L55390 45959
L55353 45940
L55259 45940
L55221 45959
L55203 45978
L55184 46015
L55184 46090
L55203 46128
L55221 46146
L55259 46165
" />
<path d="M56428 44315
L56240 44446
" />
<path d="M56428 44540
L56034 44540
L56034 44390
L56053 44353
L56071 44334
L56109 44315
L56165 44315
L56203 44334
L56221 44353
L56240 44390
L56240 44540
" />
<path d="M56034 44184
L56034 43921
L56428 44090
" />
<path d="M47934 48178
L47803 47990
" />
<path d="M47709 48178
L47709 47784
L47859 47784
L47896 47803
L47915 47821
L47934 47859
L47934 47915
L47915 47953
L47896 47971
L47859 47990
L47709 47990
" />
<path d="M48159 47953
L48121 47934
L48103 47915
L48084 47878
L48084 47859
L48103 47821
L48121 47803
L48159 47784
L48234 47784
L48271 47803
L48290 47821
L48309 47859
L48309 47878
L48290 47915
L48271 47934
L48234 47953
L48159 47953
L48121 47971
L48103 47990
L48084 48028
L48084 48103
L48103 48140
L48121 48159
L48159 48178
L48234 48178
L48271 48159
L48290 48140
L48309 48103
L48309 48028
L48290 47990
L48271 47971
L48234 47953
" />
<path d="M55178 41065
L54990 41196
" />
<path d="M55178 41290
L54784 41290
L54784 41140
L54803 41103
L54821 41084
L54859 41065
L54915 41065
L54953 41084
L54971 41103
L54990 41140
L54990 41290
" />
<path d="M55178 40878
L55178 40803
L55159 40765
L55140 40746
L55084 40709
L55009 40690
L54859 40690
L54821 40709
L54803 40728
L54784 40765
L54784 40840
L54803 40878
L54821 40896
L54859 40915
L54953 40915
L54990 40896
L55009 40878
L55028 40840
L55028 40765
L55009 40728
L54990 40709
L54953 40690
" />
<path d="M50700 39729
L50700 40047
L50718 40085
L50737 40104
L50775 40122
L50850 40122
L50887 40104
L50906 40085
L50925 40047
L50925 39729
" />
<path d="M51318 40122
L51093 40122
" />
<path d="M51206 40122
L51206 39729
L51168 39785
L51131 39823
L51093 39841
" />
<path d="M57684 44140
L57665 44159
L57609 44178
L57571 44178
L57515 44159
L57478 44121
L57459 44084
L57440 44009
L57440 43953
L57459 43878
L57478 43840
L57515 43803
L57571 43784
L57609 43784
L57665 43803
L57684 43821
" />
<path d="M58059 44178
L57834 44178
" />
<path d="M57946 44178
L57946 43784
L57909 43840
L57871 43878
L57834 43896
" />
<path d="M58315 41949
L58315 41556
L58465 41556
L58503 41574
L58521 41593
L58540 41631
L58540 41687
L58521 41724
L58503 41743
L58465 41762
L58315 41762
" />
<path d="M58671 41556
L58915 41556
L58784 41706
L58840 41706
L58878 41724
L58896 41743
L58915 41781
L58915 41874
L58896 41912
L58878 41931
L58840 41949
L58728 41949
L58690 41931
L58671 41912
" />
<path d="M56746 41928
L56615 41740
" />
<path d="M56521 41928
L56521 41534
L56671 41534
L56709 41553
L56728 41571
L56746 41609
L56746 41665
L56728 41703
L56709 41721
L56671 41740
L56521 41740
" />
<path d="M57121 41928
L56896 41928
" />
<path d="M57009 41928
L57009 41534
L56971 41590
L56934 41628
L56896 41646
" />
<path d="M57365 41534
L57403 41534
L57440 41553
L57459 41571
L57478 41609
L57496 41684
L57496 41778
L57478 41853
L57459 41890
L57440 41909
L57403 41928
L57365 41928
L57328 41909
L57309 41890
L57290 41853
L57271 41778
L57271 41684
L57290 41609
L57309 41571
L57328 41553
L57365 41534
" />
</g>
<g style="fill:#C1C100; fill-opacity:0.0; 
stroke:#C1C100; stroke-width:59.0551; stroke-opacity:1; 
stroke-linecap:round; stroke-linejoin:round;">
<path d="M61000 38000
L61000 51000
" />
<path d="M45000 38000
L61000 38000
" />
<path d="M45000 51000
L45000 38000
" />
<path d="M61000 51000
L45000 51000
" />
</g> 
</svg>
