<?xml version="1.0" standalone="no"?>
 <!DOCTYPE svg PUBLIC "-//W3C//DTD SVG 1.1//EN" 
 "http://www.w3.org/Graphics/SVG/1.1/DTD/svg11.dtd"> 
<svg xmlns="http://www.w3.org/2000/svg" version="1.1" 
    width="5.14604cm" height="3.36804cm" viewBox="0 0 20260 13260 ">
<title>SVG Picture created as AmpliGSR-brd.svg date 2016/09/06 18:56:06 </title>
  <desc>Picture generated by PCBNEW </desc>
<g style="fill:#000000; fill-opacity:1;stroke:#000000; stroke-opacity:1;
stroke-linecap:round; stroke-linejoin:round; "
 transform="translate(0 0) scale(1 1)">
</g>
<g style="fill:#840000; fill-opacity:0.0; 
stroke:#840000; stroke-width:39.3701; stroke-opacity:1; 
stroke-linecap:round; stroke-linejoin:round;">
</g>
<g style="fill:#840000; fill-opacity:1.0; 
stroke:#840000; stroke-width:39.3701; stroke-opacity:1; 
stroke-linecap:round; stroke-linejoin:round;">
<polyline style="fill-rule:evenodd;"
points="11265,11472
10793,11472
10793,10999
11265,10999
11265,11472
" /> 
<circle cx="11029.5" cy="9267.32" r="236.22" /> 
<circle cx="14529.5" cy="11985.8" r="780.315" /> 
<circle cx="14529.5" cy="9735.83" r="780.315" /> 
<circle cx="4029.53" cy="8235.83" r="373.815" /> 
<circle cx="4029.53" cy="5235.83" r="373.815" /> 
<circle cx="3029.53" cy="5235.83" r="373.815" /> 
<circle cx="3029.53" cy="8235.83" r="373.815" /> 
<circle cx="5029.53" cy="8235.83" r="373.815" /> 
<circle cx="5029.53" cy="5235.83" r="373.815" /> 
<circle cx="5029.53" cy="4235.83" r="373.815" /> 
<circle cx="2029.53" cy="4235.83" r="373.815" /> 
<circle cx="2029.53" cy="9235.83" r="373.815" /> 
<circle cx="5029.53" cy="9235.83" r="373.815" /> 
<circle cx="10029.5" cy="7235.83" r="373.815" /> 
<circle cx="10029.5" cy="10235.8" r="373.815" /> 
<circle cx="11029.5" cy="5235.83" r="373.815" /> 
<circle cx="11029.5" cy="8235.83" r="373.815" /> 
<circle cx="7279.53" cy="11735.8" r="373.815" /> 
<circle cx="4279.53" cy="11735.8" r="373.815" /> 
<circle cx="10029.5" cy="2235.83" r="373.815" /> 
<circle cx="10029.5" cy="5235.83" r="373.815" /> 
</g>
<g style="fill:#840000; fill-opacity:1.0; 
stroke:#840000; stroke-width:629.921; stroke-opacity:1; 
stroke-linecap:round; stroke-linejoin:round;">
</g>
<g style="fill:#840000; fill-opacity:0.0; 
stroke:#840000; stroke-width:629.921; stroke-opacity:1; 
stroke-linecap:round; stroke-linejoin:round;">
<path d="M5891 4235
L6167 4235
" />
<path d="M5891 5235
L6167 5235
" />
<path d="M5891 6235
L6167 6235
" />
<path d="M5891 7235
L6167 7235
" />
<path d="M5891 8235
L6167 8235
" />
<path d="M5891 9235
L6167 9235
" />
<path d="M5891 10235
L6167 10235
" />
<path d="M8891 10235
L9167 10235
" />
<path d="M8891 9235
L9167 9235
" />
<path d="M8891 8235
L9167 8235
" />
<path d="M8891 7235
L9167 7235
" />
<path d="M8891 6235
L9167 6235
" />
<path d="M8891 5235
L9167 5235
" />
<path d="M8891 4235
L9167 4235
" />
</g>
<g style="fill:#840000; fill-opacity:0.0; 
stroke:#840000; stroke-width:39.3701; stroke-opacity:1; 
stroke-linecap:round; stroke-linejoin:round;">
</g>
<g style="fill:#840000; fill-opacity:1.0; 
stroke:#840000; stroke-width:39.3701; stroke-opacity:1; 
stroke-linecap:round; stroke-linejoin:round;">
<polyline style="fill-rule:evenodd;"
points="11793,6472
11793,5999
12265,5999
12265,6472
11793,6472
" /> 
<circle cx="13998" cy="6235.83" r="236.22" /> 
<polyline style="fill-rule:evenodd;"
points="14403,1743
14403,2727
13655,2727
13655,1743
14403,1743
" /> 
</g>
<g style="fill:#840000; fill-opacity:1.0; 
stroke:#840000; stroke-width:787.402; stroke-opacity:1; 
stroke-linecap:round; stroke-linejoin:round;">
</g>
<g style="fill:#840000; fill-opacity:0.0; 
stroke:#840000; stroke-width:787.402; stroke-opacity:1; 
stroke-linecap:round; stroke-linejoin:round;">
<path d="M13029 2353
L13029 2117
" />
<path d="M12029 2353
L12029 2117
" />
</g>
<g style="fill:#840000; fill-opacity:0.0; 
stroke:#840000; stroke-width:39.3701; stroke-opacity:1; 
stroke-linecap:round; stroke-linejoin:round;">
</g>
<g style="fill:#840000; fill-opacity:1.0; 
stroke:#840000; stroke-width:39.3701; stroke-opacity:1; 
stroke-linecap:round; stroke-linejoin:round;">
<circle cx="14029.5" cy="4235.83" r="373.815" /> 
<circle cx="11029.5" cy="4235.83" r="373.815" /> 
<polyline style="fill-rule:evenodd;"
points="13765,7749
13765,8222
13293,8222
13293,7749
13765,7749
" /> 
<circle cx="12742.1" cy="7985.83" r="236.22" /> 
</g>
<g style="fill:#008400; fill-opacity:1.0; 
stroke:#008400; stroke-width:100; stroke-opacity:1; 
stroke-linecap:round; stroke-linejoin:round;">
</g>
<g style="fill:#008400; fill-opacity:0.0; 
stroke:#008400; stroke-width:100; stroke-opacity:1; 
stroke-linecap:round; stroke-linejoin:round;">
<path d="M11029 10235
L9529 8235
" />
<path d="M9529 8235
L9029 8235
" />
<path d="M11029 11235
L11029 10235
" />
<path d="M10029 11235
L8279 12985
" />
<path d="M8279 12985
L529 12985
" />
<path d="M529 12985
L529 6235
" />
<path d="M529 6235
L2029 4735
" />
<path d="M2029 4735
L2029 4235
" />
<path d="M11029 11235
L10029 11235
" />
<path d="M14529 11985
L11029 11235
" />
<path d="M12779 7985
L12029 6235
" />
<path d="M11029 8235
L12779 7985
" />
<path d="M14529 9735
L12779 7985
" />
<path d="M11029 9267
L11029 8235
" />
<path d="M10029 8235
L9029 7235
" />
<path d="M11029 8235
L10029 8235
" />
<path d="M8029 7235
L8029 12735
" />
<path d="M8029 12735
L1029 12735
" />
<path d="M1029 12735
L1029 9735
" />
<path d="M1029 9735
L2029 9235
" />
<path d="M9029 7235
L8029 7235
" />
<path d="M2029 9235
L3029 8235
" />
<path d="M2029 9235
L2029 9235
" />
<path d="M12029 6235
L12029 2235
" />
<path d="M7029 6235
L6029 7235
" />
<path d="M7029 3735
L7029 6235
" />
<path d="M9529 1235
L7029 3735
" />
<path d="M13029 1235
L9529 1235
" />
<path d="M13029 1735
L13029 1235
" />
<path d="M13029 2235
L13029 1735
" />
<path d="M4029 7235
L4029 8235
" />
<path d="M6029 7235
L4029 7235
" />
<path d="M3029 5235
L4029 5235
" />
<path d="M4029 5735
L4529 6235
" />
<path d="M4529 6235
L6029 6235
" />
<path d="M4029 5235
L4029 5735
" />
<path d="M5029 8735
L5029 8235
" />
<path d="M5029 9235
L5029 8735
" />
<path d="M5029 8235
L6029 8235
" />
<path d="M6029 5235
L5029 5235
" />
<path d="M6029 5235
L6029 4235
" />
<path d="M6029 4235
L5029 4235
" />
<path d="M5029 4235
L5029 5235
" />
<path d="M10279 6235
L10029 7235
" />
<path d="M9029 6235
L10279 6235
" />
<path d="M10279 6235
L11029 5235
" />
<path d="M9029 10235
L10029 10235
" />
<path d="M9029 9235
L9029 10235
" />
<path d="M7279 11735
L7529 11735
" />
<path d="M7529 11735
L7529 10735
" />
<path d="M7529 10735
L7529 6235
" />
<path d="M7529 6235
L8529 5235
" />
<path d="M8529 5235
L9029 5235
" />
<path d="M9029 5235
L10029 5235
" />
<path d="M4279 11735
L5029 11735
" />
<path d="M5029 11735
L6029 10235
" />
<path d="M6029 10235
L6029 9235
" />
<path d="M13529 7985
L13529 6704
" />
<path d="M13529 6704
L13998 6235
" />
<path d="M13998 4267
L14029 4235
" />
<path d="M13998 6235
L13998 4267
" />
<path d="M14029 4235
L14029 2235
" />
<path d="M11029 4235
L9029 4235
" />
<path d="M9029 3235
L10029 2235
" />
<path d="M9029 4235
L9029 3235
" />
</g>
<g style="fill:#FFFFFF; fill-opacity:0.0; 
stroke:#FFFFFF; stroke-width:39.3701; stroke-opacity:1; 
stroke-linecap:round; stroke-linejoin:round;">
</g>
<g style="fill:#FFFFFF; fill-opacity:1.0; 
stroke:#FFFFFF; stroke-width:39.3701; stroke-opacity:1; 
stroke-linecap:round; stroke-linejoin:round;">
<circle cx="11029.5" cy="11235.8" r="137.795" /> 
<circle cx="11029.5" cy="9267.32" r="137.795" /> 
<circle cx="14529.5" cy="11985.8" r="580.315" /> 
<circle cx="14529.5" cy="9735.83" r="580.315" /> 
<circle cx="4029.53" cy="8235.83" r="177.315" /> 
<circle cx="4029.53" cy="5235.83" r="177.315" /> 
<circle cx="3029.53" cy="5235.83" r="177.315" /> 
<circle cx="3029.53" cy="8235.83" r="177.315" /> 
<circle cx="5029.53" cy="8235.83" r="177.315" /> 
<circle cx="5029.53" cy="5235.83" r="177.315" /> 
<circle cx="5029.53" cy="4235.83" r="177.315" /> 
<circle cx="2029.53" cy="4235.83" r="177.315" /> 
<circle cx="2029.53" cy="9235.83" r="177.315" /> 
<circle cx="5029.53" cy="9235.83" r="177.315" /> 
<circle cx="10029.5" cy="7235.83" r="177.315" /> 
<circle cx="10029.5" cy="10235.8" r="177.315" /> 
<circle cx="11029.5" cy="5235.83" r="177.315" /> 
<circle cx="11029.5" cy="8235.83" r="177.315" /> 
<circle cx="7279.53" cy="11735.8" r="177.315" /> 
<circle cx="4279.53" cy="11735.8" r="177.315" /> 
<circle cx="10029.5" cy="2235.83" r="177.315" /> 
<circle cx="10029.5" cy="5235.83" r="177.315" /> 
<circle cx="6029.53" cy="4235.83" r="137.795" /> 
<circle cx="6029.53" cy="5235.83" r="137.795" /> 
<circle cx="6029.53" cy="6235.83" r="137.795" /> 
<circle cx="6029.53" cy="7235.83" r="137.795" /> 
<circle cx="6029.53" cy="8235.83" r="137.795" /> 
<circle cx="6029.53" cy="9235.83" r="137.795" /> 
<circle cx="6029.53" cy="10235.8" r="137.795" /> 
<circle cx="9029.53" cy="10235.8" r="137.795" /> 
<circle cx="9029.53" cy="9235.83" r="137.795" /> 
<circle cx="9029.53" cy="8235.83" r="137.795" /> 
<circle cx="9029.53" cy="7235.83" r="137.795" /> 
<circle cx="9029.53" cy="6235.83" r="137.795" /> 
<circle cx="9029.53" cy="5235.83" r="137.795" /> 
<circle cx="9029.53" cy="4235.83" r="137.795" /> 
<circle cx="12029.5" cy="6235.83" r="137.795" /> 
<circle cx="13998" cy="6235.83" r="137.795" /> 
<circle cx="14029.5" cy="2235.83" r="216.535" /> 
<circle cx="13029.5" cy="2235.83" r="216.535" /> 
<circle cx="12029.5" cy="2235.83" r="216.535" /> 
<circle cx="14029.5" cy="4235.83" r="177.315" /> 
<circle cx="11029.5" cy="4235.83" r="177.315" /> 
<circle cx="13529.5" cy="7985.83" r="137.795" /> 
<circle cx="12742.1" cy="7985.83" r="137.795" /> 
</g>
<g style="fill:#840000; fill-opacity:1.0; 
stroke:#840000; stroke-width:39.3701; stroke-opacity:1; 
stroke-linecap:round; stroke-linejoin:round;">
<polyline style="fill-rule:evenodd;"
points="11265,11472
10793,11472
10793,10999
11265,10999
11265,11472
" /> 
<circle cx="11029.5" cy="9267.32" r="236.22" /> 
<circle cx="14529.5" cy="11985.8" r="780.315" /> 
<circle cx="14529.5" cy="9735.83" r="780.315" /> 
<circle cx="4029.53" cy="8235.83" r="373.815" /> 
<circle cx="4029.53" cy="5235.83" r="373.815" /> 
<circle cx="3029.53" cy="5235.83" r="373.815" /> 
<circle cx="3029.53" cy="8235.83" r="373.815" /> 
<circle cx="5029.53" cy="8235.83" r="373.815" /> 
<circle cx="5029.53" cy="5235.83" r="373.815" /> 
<circle cx="5029.53" cy="4235.83" r="373.815" /> 
<circle cx="2029.53" cy="4235.83" r="373.815" /> 
<circle cx="2029.53" cy="9235.83" r="373.815" /> 
<circle cx="5029.53" cy="9235.83" r="373.815" /> 
<circle cx="10029.5" cy="7235.83" r="373.815" /> 
<circle cx="10029.5" cy="10235.8" r="373.815" /> 
<circle cx="11029.5" cy="5235.83" r="373.815" /> 
<circle cx="11029.5" cy="8235.83" r="373.815" /> 
<circle cx="7279.53" cy="11735.8" r="373.815" /> 
<circle cx="4279.53" cy="11735.8" r="373.815" /> 
<circle cx="10029.5" cy="2235.83" r="373.815" /> 
<circle cx="10029.5" cy="5235.83" r="373.815" /> 
</g>
<g style="fill:#840000; fill-opacity:1.0; 
stroke:#840000; stroke-width:629.921; stroke-opacity:1; 
stroke-linecap:round; stroke-linejoin:round;">
</g>
<g style="fill:#840000; fill-opacity:0.0; 
stroke:#840000; stroke-width:629.921; stroke-opacity:1; 
stroke-linecap:round; stroke-linejoin:round;">
<path d="M5891 4235
L6167 4235
" />
<path d="M5891 5235
L6167 5235
" />
<path d="M5891 6235
L6167 6235
" />
<path d="M5891 7235
L6167 7235
" />
<path d="M5891 8235
L6167 8235
" />
<path d="M5891 9235
L6167 9235
" />
<path d="M5891 10235
L6167 10235
" />
<path d="M8891 10235
L9167 10235
" />
<path d="M8891 9235
L9167 9235
" />
<path d="M8891 8235
L9167 8235
" />
<path d="M8891 7235
L9167 7235
" />
<path d="M8891 6235
L9167 6235
" />
<path d="M8891 5235
L9167 5235
" />
<path d="M8891 4235
L9167 4235
" />
</g>
<g style="fill:#840000; fill-opacity:0.0; 
stroke:#840000; stroke-width:39.3701; stroke-opacity:1; 
stroke-linecap:round; stroke-linejoin:round;">
</g>
<g style="fill:#840000; fill-opacity:1.0; 
stroke:#840000; stroke-width:39.3701; stroke-opacity:1; 
stroke-linecap:round; stroke-linejoin:round;">
<polyline style="fill-rule:evenodd;"
points="11793,6472
11793,5999
12265,5999
12265,6472
11793,6472
" /> 
<circle cx="13998" cy="6235.83" r="236.22" /> 
<polyline style="fill-rule:evenodd;"
points="14403,1743
14403,2727
13655,2727
13655,1743
14403,1743
" /> 
</g>
<g style="fill:#840000; fill-opacity:1.0; 
stroke:#840000; stroke-width:787.402; stroke-opacity:1; 
stroke-linecap:round; stroke-linejoin:round;">
</g>
<g style="fill:#840000; fill-opacity:0.0; 
stroke:#840000; stroke-width:787.402; stroke-opacity:1; 
stroke-linecap:round; stroke-linejoin:round;">
<path d="M13029 2353
L13029 2117
" />
<path d="M12029 2353
L12029 2117
" />
</g>
<g style="fill:#840000; fill-opacity:0.0; 
stroke:#840000; stroke-width:39.3701; stroke-opacity:1; 
stroke-linecap:round; stroke-linejoin:round;">
</g>
<g style="fill:#840000; fill-opacity:1.0; 
stroke:#840000; stroke-width:39.3701; stroke-opacity:1; 
stroke-linecap:round; stroke-linejoin:round;">
<circle cx="14029.5" cy="4235.83" r="373.815" /> 
<circle cx="11029.5" cy="4235.83" r="373.815" /> 
<polyline style="fill-rule:evenodd;"
points="13765,7749
13765,8222
13293,8222
13293,7749
13765,7749
" /> 
<circle cx="12742.1" cy="7985.83" r="236.22" /> 
</g>
<g style="fill:#FFFFFF; fill-opacity:1.0; 
stroke:#FFFFFF; stroke-width:39.3701; stroke-opacity:1; 
stroke-linecap:round; stroke-linejoin:round;">
<circle cx="11029.5" cy="11235.8" r="137.795" /> 
<circle cx="11029.5" cy="9267.32" r="137.795" /> 
<circle cx="14529.5" cy="11985.8" r="580.315" /> 
<circle cx="14529.5" cy="9735.83" r="580.315" /> 
<circle cx="4029.53" cy="8235.83" r="177.315" /> 
<circle cx="4029.53" cy="5235.83" r="177.315" /> 
<circle cx="3029.53" cy="5235.83" r="177.315" /> 
<circle cx="3029.53" cy="8235.83" r="177.315" /> 
<circle cx="5029.53" cy="8235.83" r="177.315" /> 
<circle cx="5029.53" cy="5235.83" r="177.315" /> 
<circle cx="5029.53" cy="4235.83" r="177.315" /> 
<circle cx="2029.53" cy="4235.83" r="177.315" /> 
<circle cx="2029.53" cy="9235.83" r="177.315" /> 
<circle cx="5029.53" cy="9235.83" r="177.315" /> 
<circle cx="10029.5" cy="7235.83" r="177.315" /> 
<circle cx="10029.5" cy="10235.8" r="177.315" /> 
<circle cx="11029.5" cy="5235.83" r="177.315" /> 
<circle cx="11029.5" cy="8235.83" r="177.315" /> 
<circle cx="7279.53" cy="11735.8" r="177.315" /> 
<circle cx="4279.53" cy="11735.8" r="177.315" /> 
<circle cx="10029.5" cy="2235.83" r="177.315" /> 
<circle cx="10029.5" cy="5235.83" r="177.315" /> 
<circle cx="6029.53" cy="4235.83" r="137.795" /> 
<circle cx="6029.53" cy="5235.83" r="137.795" /> 
<circle cx="6029.53" cy="6235.83" r="137.795" /> 
<circle cx="6029.53" cy="7235.83" r="137.795" /> 
<circle cx="6029.53" cy="8235.83" r="137.795" /> 
<circle cx="6029.53" cy="9235.83" r="137.795" /> 
<circle cx="6029.53" cy="10235.8" r="137.795" /> 
<circle cx="9029.53" cy="10235.8" r="137.795" /> 
<circle cx="9029.53" cy="9235.83" r="137.795" /> 
<circle cx="9029.53" cy="8235.83" r="137.795" /> 
<circle cx="9029.53" cy="7235.83" r="137.795" /> 
<circle cx="9029.53" cy="6235.83" r="137.795" /> 
<circle cx="9029.53" cy="5235.83" r="137.795" /> 
<circle cx="9029.53" cy="4235.83" r="137.795" /> 
<circle cx="12029.5" cy="6235.83" r="137.795" /> 
<circle cx="13998" cy="6235.83" r="137.795" /> 
<circle cx="14029.5" cy="2235.83" r="216.535" /> 
<circle cx="13029.5" cy="2235.83" r="216.535" /> 
<circle cx="12029.5" cy="2235.83" r="216.535" /> 
<circle cx="14029.5" cy="4235.83" r="177.315" /> 
<circle cx="11029.5" cy="4235.83" r="177.315" /> 
<circle cx="13529.5" cy="7985.83" r="137.795" /> 
<circle cx="12742.1" cy="7985.83" r="137.795" /> 
</g>
<g style="fill:#008484; fill-opacity:1.0; 
stroke:#008484; stroke-width:59.0551; stroke-opacity:1; 
stroke-linecap:round; stroke-linejoin:round;">
</g>
<g style="fill:#008484; fill-opacity:0.0; 
stroke:#008484; stroke-width:59.0551; stroke-opacity:1; 
stroke-linecap:round; stroke-linejoin:round;">
<path d="M10635 11629
L10635 8873
" />
<path d="M10635 8873
L11423 8873
" />
<path d="M11423 8873
L11423 11629
" />
<path d="M11423 11629
L10635 11629
" />
<circle cx="14529.5" cy="11985.8" r="900" /> 
<circle cx="14529.5" cy="9735.83" r="900" /> 
<path d="M3529 7735
L3529 5735
" />
<path d="M3529 5735
L4529 5735
" />
<path d="M4529 5735
L4529 7735
" />
<path d="M4529 7735
L3529 7735
" />
<path d="M3529 5735
L3529 7735
" />
<path d="M3529 7735
L2529 7735
" />
<path d="M2529 7735
L2529 5735
" />
<path d="M2529 5735
L3529 5735
" />
<path d="M4529 7735
L4529 5735
" />
<path d="M4529 5735
L5529 5735
" />
<path d="M5529 5735
L5529 7735
" />
<path d="M5529 7735
L4529 7735
" />
<path d="M4529 4735
L2529 4735
" />
<path d="M2529 4735
L2529 3735
" />
<path d="M2529 3735
L4529 3735
" />
<path d="M4529 3735
L4529 4735
" />
<path d="M2529 8735
L4529 8735
" />
<path d="M4529 8735
L4529 9735
" />
<path d="M4529 9735
L2529 9735
" />
<path d="M2529 9735
L2529 8735
" />
<path d="M10529 7735
L10529 9735
" />
<path d="M10529 9735
L9529 9735
" />
<path d="M9529 9735
L9529 7735
" />
<path d="M9529 7735
L10529 7735
" />
<path d="M11529 5735
L11529 7735
" />
<path d="M11529 7735
L10529 7735
" />
<path d="M10529 7735
L10529 5735
" />
<path d="M10529 5735
L11529 5735
" />
<path d="M6779 12235
L4779 12235
" />
<path d="M4779 12235
L4779 11235
" />
<path d="M4779 11235
L6779 11235
" />
<path d="M6779 11235
L6779 12235
" />
<path d="M10529 2735
L10529 4735
" />
<path d="M10529 4735
L9529 4735
" />
<path d="M9529 4735
L9529 2735
" />
<path d="M9529 2735
L10529 2735
" />
<path d="M6082 3332
L6082 3832
" />
<path d="M8976 3332
L8976 3832
" />
<path d="M8976 11139
L8976 10639
" />
<path d="M6082 11139
L6082 10639
" />
<path d="M6082 3332
L8976 3332
" />
<path d="M6082 11139
L8976 11139
" />
<path d="M6082 3832
L5576 3832
" />
<path d="M11635 5842
L14391 5842
" />
<path d="M14391 5842
L14391 6629
" />
<path d="M14391 6629
L11635 6629
" />
<path d="M11635 6629
L11635 5842
" />
<path d="M14568 3424
L14568 1062
" />
<path d="M14568 1062
L11490 1062
" />
<path d="M11490 1062
L11490 3424
" />
<path d="M11490 3424
L14568 3424
" />
<path d="M14029 1062
L14029 1456
" />
<path d="M14029 1456
L12029 1456
" />
<path d="M12029 1456
L12029 1062
" />
<path d="M14029 1456
L13931 1625
" />
<path d="M13931 1625
L12127 1625
" />
<path d="M12127 1625
L12029 1456
" />
<path d="M13931 1062
L13931 1456
" />
<path d="M12127 1062
L12127 1456
" />
<path d="M14344 3424
L14344 3180
" />
<path d="M14344 3180
L13714 3180
" />
<path d="M13714 3180
L13714 3424
" />
<path d="M13344 3424
L13344 3180
" />
<path d="M13344 3180
L12714 3180
" />
<path d="M12714 3180
L12714 3424
" />
<path d="M12344 3424
L12344 3180
" />
<path d="M12344 3180
L11714 3180
" />
<path d="M11714 3180
L11714 3424
" />
<path d="M13529 4735
L11529 4735
" />
<path d="M11529 4735
L11529 3735
" />
<path d="M11529 3735
L13529 3735
" />
<path d="M13529 3735
L13529 4735
" />
<path d="M13106 8969
L13106 7001
" />
<path d="M13051 8966
L13051 8046
" />
<path d="M13051 7925
L13051 7005
" />
<path d="M12996 8960
L12996 8172
" />
<path d="M12996 7799
L12996 7011
" />
<path d="M12940 8950
L12940 8229
" />
<path d="M12940 7741
L12940 7020
" />
<path d="M12885 8937
L12885 8266
" />
<path d="M12885 7705
L12885 7033
" />
<path d="M12830 8921
L12830 8288
" />
<path d="M12830 7683
L12830 7050
" />
<path d="M12775 8901
L12775 8298
" />
<path d="M12775 7672
L12775 7069
" />
<path d="M12720 8877
L12720 8300
" />
<path d="M12720 7671
L12720 7093
" />
<path d="M12665 8850
L12665 8291
" />
<path d="M12665 7680
L12665 7121
" />
<path d="M12610 8818
L12610 8271
" />
<path d="M12610 7700
L12610 7153
" />
<path d="M12555 8780
L12555 8239
" />
<path d="M12555 7732
L12555 7190
" />
<path d="M12500 8737
L12500 8187
" />
<path d="M12500 7784
L12500 7234
" />
<path d="M12444 8686
L12444 8090
" />
<path d="M12444 7881
L12444 7285
" />
<path d="M12389 8627
L12389 7343
" />
<path d="M12334 8557
L12334 7414
" />
<path d="M12279 8471
L12279 7500
" />
<path d="M12224 8357
L12224 7614
" />
<path d="M12169 8171
L12169 7800
" />
<circle cx="12742.1" cy="7985.83" r="314.961" /> 
<circle cx="13135.8" cy="7985.83" r="999.016" /> 
</g>
<g style="fill:#C1C100; fill-opacity:0.0; 
stroke:#C1C100; stroke-width:59.0551; stroke-opacity:1; 
stroke-linecap:round; stroke-linejoin:round;">
<path d="M11170 10301
L11188 10320
L11207 10376
L11207 10413
L11188 10470
L11151 10507
L11113 10526
L11038 10545
L10982 10545
L10907 10526
L10870 10507
L10832 10470
L10813 10413
L10813 10376
L10832 10320
L10851 10301
" />
<path d="M10851 10151
L10832 10132
L10813 10095
L10813 10001
L10832 9963
L10851 9945
L10888 9926
L10926 9926
L10982 9945
L11207 10170
L11207 9926
" />
<path d="M13038 12613
L13038 12220
L13188 12220
L13226 12238
L13245 12257
L13263 12295
L13263 12351
L13245 12388
L13226 12407
L13188 12426
L13038 12426
" />
<path d="M13638 12613
L13413 12613
" />
<path d="M13526 12613
L13526 12220
L13488 12276
L13451 12313
L13413 12332
" />
<path d="M12938 10413
L12938 10020
L13088 10020
L13126 10038
L13145 10057
L13163 10095
L13163 10151
L13145 10188
L13126 10207
L13088 10226
L12938 10226
" />
<path d="M13313 10057
L13332 10038
L13370 10020
L13463 10020
L13501 10038
L13520 10057
L13538 10095
L13538 10132
L13520 10188
L13295 10413
L13538 10413
" />
<path d="M4207 7301
L4020 7432
" />
<path d="M4207 7526
L3813 7526
L3813 7376
L3832 7338
L3851 7320
L3888 7301
L3945 7301
L3982 7320
L4001 7338
L4020 7376
L4020 7526
" />
<path d="M4207 6926
L4207 7151
" />
<path d="M4207 7038
L3813 7038
L3870 7076
L3907 7113
L3926 7151
" />
<path d="M3207 7301
L3020 7432
" />
<path d="M3207 7526
L2813 7526
L2813 7376
L2832 7338
L2851 7320
L2888 7301
L2945 7301
L2982 7320
L3001 7338
L3020 7376
L3020 7526
" />
<path d="M2851 7151
L2832 7132
L2813 7095
L2813 7001
L2832 6963
L2851 6945
L2888 6926
L2926 6926
L2982 6945
L3207 7170
L3207 6926
" />
<path d="M5207 7301
L5020 7432
" />
<path d="M5207 7526
L4813 7526
L4813 7376
L4832 7338
L4851 7320
L4888 7301
L4945 7301
L4982 7320
L5001 7338
L5020 7376
L5020 7526
" />
<path d="M4813 7170
L4813 6926
L4963 7057
L4963 7001
L4982 6963
L5001 6945
L5038 6926
L5132 6926
L5170 6945
L5188 6963
L5207 7001
L5207 7113
L5188 7151
L5170 7170
" />
<path d="M2863 4313
L2732 4126
" />
<path d="M2638 4313
L2638 3920
L2788 3920
L2826 3938
L2845 3957
L2863 3995
L2863 4051
L2845 4088
L2826 4107
L2788 4126
L2638 4126
" />
<path d="M3201 4051
L3201 4313
" />
<path d="M3107 3901
L3013 4182
L3257 4182
" />
<path d="M2863 9213
L2732 9026
" />
<path d="M2638 9213
L2638 8820
L2788 8820
L2826 8838
L2845 8857
L2863 8895
L2863 8951
L2845 8988
L2826 9007
L2788 9026
L2638 9026
" />
<path d="M3220 8820
L3032 8820
L3013 9007
L3032 8988
L3070 8970
L3163 8970
L3201 8988
L3220 9007
L3238 9045
L3238 9138
L3220 9176
L3201 9195
L3163 9213
L3070 9213
L3032 9195
L3013 9176
" />
<path d="M10457 8551
L10270 8682
" />
<path d="M10457 8776
L10063 8776
L10063 8626
L10082 8588
L10101 8570
L10138 8551
L10195 8551
L10232 8570
L10251 8588
L10270 8626
L10270 8776
" />
<path d="M10063 8213
L10063 8288
L10082 8326
L10101 8345
L10157 8382
L10232 8401
L10382 8401
L10420 8382
L10438 8363
L10457 8326
L10457 8251
L10438 8213
L10420 8195
L10382 8176
L10288 8176
L10251 8195
L10232 8213
L10213 8251
L10213 8326
L10232 8363
L10251 8382
L10288 8401
" />
<path d="M11107 6301
L10920 6432
" />
<path d="M11107 6526
L10713 6526
L10713 6376
L10732 6338
L10751 6320
L10788 6301
L10845 6301
L10882 6320
L10901 6338
L10920 6376
L10920 6526
" />
<path d="M10713 6170
L10713 5907
L11107 6076
" />
<path d="M5163 11813
L5032 11626
" />
<path d="M4938 11813
L4938 11420
L5088 11420
L5126 11438
L5145 11457
L5163 11495
L5163 11551
L5145 11588
L5126 11607
L5088 11626
L4938 11626
" />
<path d="M5388 11588
L5351 11570
L5332 11551
L5313 11513
L5313 11495
L5332 11457
L5351 11438
L5388 11420
L5463 11420
L5501 11438
L5520 11457
L5538 11495
L5538 11513
L5520 11551
L5501 11570
L5463 11588
L5388 11588
L5351 11607
L5332 11626
L5313 11663
L5313 11738
L5332 11776
L5351 11795
L5388 11813
L5463 11813
L5501 11795
L5520 11776
L5538 11738
L5538 11663
L5520 11626
L5501 11607
L5463 11588
" />
<path d="M10007 3201
L9820 3332
" />
<path d="M10007 3426
L9613 3426
L9613 3276
L9632 3238
L9651 3220
L9688 3201
L9745 3201
L9782 3220
L9801 3238
L9820 3276
L9820 3426
" />
<path d="M10007 3013
L10007 2938
L9988 2901
L9970 2882
L9913 2845
L9838 2826
L9688 2826
L9651 2845
L9632 2863
L9613 2901
L9613 2976
L9632 3013
L9651 3032
L9688 3051
L9782 3051
L9820 3032
L9838 3013
L9857 2976
L9857 2901
L9838 2863
L9820 2845
L9782 2826
" />
<path d="M5629 2820
L5629 3138
L5648 3176
L5667 3195
L5704 3213
L5779 3213
L5817 3195
L5835 3176
L5854 3138
L5854 2820
" />
<path d="M6248 3213
L6023 3213
" />
<path d="M6135 3213
L6135 2820
L6098 2876
L6060 2913
L6023 2932
" />
<path d="M12713 6376
L12695 6395
L12638 6413
L12601 6413
L12545 6395
L12507 6357
L12488 6320
L12470 6245
L12470 6188
L12488 6113
L12507 6076
L12545 6038
L12601 6020
L12638 6020
L12695 6038
L12713 6057
" />
<path d="M13088 6413
L12863 6413
" />
<path d="M12976 6413
L12976 6020
L12938 6076
L12901 6113
L12863 6132
" />
<path d="M14938 2113
L14938 1720
L15088 1720
L15126 1738
L15145 1757
L15163 1795
L15163 1851
L15145 1888
L15126 1907
L15088 1926
L14938 1926
" />
<path d="M15295 1720
L15538 1720
L15407 1870
L15463 1870
L15501 1888
L15520 1907
L15538 1945
L15538 2038
L15520 2076
L15501 2095
L15463 2113
L15351 2113
L15313 2095
L15295 2076
" />
<path d="M11876 4213
L11745 4026
" />
<path d="M11651 4213
L11651 3820
L11801 3820
L11838 3838
L11857 3857
L11876 3895
L11876 3951
L11857 3988
L11838 4007
L11801 4026
L11651 4026
" />
<path d="M12251 4213
L12026 4213
" />
<path d="M12138 4213
L12138 3820
L12101 3876
L12063 3913
L12026 3932
" />
<path d="M12495 3820
L12532 3820
L12570 3838
L12588 3857
L12607 3895
L12626 3970
L12626 4063
L12607 4138
L12588 4176
L12570 4195
L12532 4213
L12495 4213
L12457 4195
L12438 4176
L12420 4138
L12401 4063
L12401 3970
L12420 3895
L12438 3857
L12457 3838
L12495 3820
" />
<path d="M14463 7476
L14445 7495
L14388 7513
L14351 7513
L14295 7495
L14257 7457
L14238 7420
L14220 7345
L14220 7288
L14238 7213
L14257 7176
L14295 7138
L14351 7120
L14388 7120
L14445 7138
L14463 7157
" />
<path d="M14595 7120
L14838 7120
L14707 7270
L14763 7270
L14801 7288
L14820 7307
L14838 7345
L14838 7438
L14820 7476
L14801 7495
L14763 7513
L14651 7513
L14613 7495
L14595 7476
" />
</g>
<g style="fill:#C1C100; fill-opacity:0.0; 
stroke:#C1C100; stroke-width:59.0551; stroke-opacity:1; 
stroke-linecap:round; stroke-linejoin:round;">
<path d="M12191 10692
L12191 10917
" />
<path d="M12191 10804
L11798 10804
L11854 10842
L11891 10879
L11910 10917
" />
<path d="M11798 10448
L11798 10410
L11816 10373
L11835 10354
L11873 10335
L11948 10317
L12041 10317
L12116 10335
L12154 10354
L12173 10373
L12191 10410
L12191 10448
L12173 10485
L12154 10504
L12116 10523
L12041 10542
L11948 10542
L11873 10523
L11835 10504
L11816 10485
L11798 10448
" />
<path d="M11798 10073
L11798 10035
L11816 9998
L11835 9979
L11873 9960
L11948 9942
L12041 9942
L12116 9960
L12154 9979
L12173 9998
L12191 10035
L12191 10073
L12173 10110
L12154 10129
L12116 10148
L12041 10167
L11948 10167
L11873 10148
L11835 10129
L11816 10110
L11798 10073
" />
<path d="M11929 9773
L12191 9773
" />
<path d="M11966 9773
L11948 9754
L11929 9717
L11929 9661
L11948 9623
L11985 9604
L12191 9604
" />
<path d="M4207 6470
L4207 6695
" />
<path d="M4207 6582
L3813 6582
L3870 6620
L3907 6657
L3926 6695
" />
<path d="M3813 6226
L3813 6188
L3832 6151
L3851 6132
L3888 6113
L3963 6095
L4057 6095
L4132 6113
L4170 6132
L4188 6151
L4207 6188
L4207 6226
L4188 6263
L4170 6282
L4132 6301
L4057 6320
L3963 6320
L3888 6301
L3851 6282
L3832 6263
L3813 6226
" />
<path d="M4207 5926
L3813 5926
" />
<path d="M4057 5888
L4207 5776
" />
<path d="M3945 5776
L4095 5926
" />
<path d="M3207 6282
L3207 6507
" />
<path d="M3207 6395
L2813 6395
L2870 6432
L2907 6470
L2926 6507
" />
<path d="M3207 6113
L2813 6113
" />
<path d="M3057 6076
L3207 5963
" />
<path d="M2945 5963
L3095 6113
" />
<path d="M5207 6470
L5207 6695
" />
<path d="M5207 6582
L4813 6582
L4870 6620
L4907 6657
L4926 6695
" />
<path d="M4813 6226
L4813 6188
L4832 6151
L4851 6132
L4888 6113
L4963 6095
L5057 6095
L5132 6113
L5170 6132
L5188 6151
L5207 6188
L5207 6226
L5188 6263
L5170 6282
L5132 6301
L5057 6320
L4963 6320
L4888 6301
L4851 6282
L4832 6263
L4813 6226
" />
<path d="M5207 5926
L4813 5926
" />
<path d="M5057 5888
L5207 5776
" />
<path d="M4945 5776
L5095 5926
" />
<path d="M3695 4613
L3470 4613
" />
<path d="M3582 4613
L3582 4220
L3545 4276
L3507 4313
L3470 4332
" />
<path d="M3938 4220
L3976 4220
L4013 4238
L4032 4257
L4051 4295
L4070 4370
L4070 4463
L4051 4538
L4032 4576
L4013 4595
L3976 4613
L3938 4613
L3901 4595
L3882 4576
L3863 4538
L3845 4463
L3845 4370
L3863 4295
L3882 4257
L3901 4238
L3938 4220
" />
<path d="M4238 4613
L4238 4220
" />
<path d="M4276 4463
L4388 4613
" />
<path d="M4388 4351
L4238 4501
" />
<path d="M3407 9613
L3182 9613
" />
<path d="M3295 9613
L3295 9220
L3257 9276
L3220 9313
L3182 9332
" />
<path d="M3763 9220
L3576 9220
L3557 9407
L3576 9388
L3613 9370
L3707 9370
L3745 9388
L3763 9407
L3782 9445
L3782 9538
L3763 9576
L3745 9595
L3707 9613
L3613 9613
L3576 9595
L3557 9576
" />
<path d="M4026 9220
L4063 9220
L4101 9238
L4120 9257
L4138 9295
L4157 9370
L4157 9463
L4138 9538
L4120 9576
L4101 9595
L4063 9613
L4026 9613
L3988 9595
L3970 9576
L3951 9538
L3932 9463
L3932 9370
L3951 9295
L3970 9257
L3988 9238
L4026 9220
" />
<path d="M4326 9613
L4326 9220
" />
<path d="M4363 9463
L4476 9613
" />
<path d="M4476 9351
L4326 9501
" />
<path d="M9601 9538
L9582 9520
L9563 9482
L9563 9388
L9582 9351
L9601 9332
L9638 9313
L9676 9313
L9732 9332
L9957 9557
L9957 9313
" />
<path d="M9920 9145
L9938 9126
L9957 9145
L9938 9163
L9920 9145
L9957 9145
" />
<path d="M9601 8976
L9582 8957
L9563 8920
L9563 8826
L9582 8788
L9601 8770
L9638 8751
L9676 8751
L9732 8770
L9957 8995
L9957 8751
" />
<path d="M9957 8582
L9563 8582
" />
<path d="M9807 8545
L9957 8432
" />
<path d="M9695 8432
L9845 8582
" />
<path d="M11145 7407
L11407 7407
" />
<path d="M10995 7501
L11276 7595
L11276 7351
" />
<path d="M11013 7238
L11013 6976
L11407 7145
" />
<path d="M11407 6826
L11013 6826
" />
<path d="M11257 6788
L11407 6676
" />
<path d="M11145 6676
L11295 6826
" />
<path d="M5576 11757
L5595 11738
L5632 11720
L5726 11720
L5763 11738
L5782 11757
L5801 11795
L5801 11832
L5782 11888
L5557 12113
L5801 12113
" />
<path d="M5970 12076
L5988 12095
L5970 12113
L5951 12095
L5970 12076
L5970 12113
" />
<path d="M6138 11757
L6157 11738
L6195 11720
L6288 11720
L6326 11738
L6345 11757
L6363 11795
L6363 11832
L6345 11888
L6120 12113
L6363 12113
" />
<path d="M6532 12113
L6532 11720
" />
<path d="M6570 11963
L6682 12113
" />
<path d="M6682 11851
L6532 12001
" />
<path d="M10145 4507
L10407 4507
" />
<path d="M9995 4601
L10276 4695
L10276 4451
" />
<path d="M10013 4338
L10013 4076
L10407 4245
" />
<path d="M10407 3926
L10013 3926
" />
<path d="M10257 3888
L10407 3776
" />
<path d="M10145 3776
L10295 3926
" />
<path d="M6957 3213
L6770 3213
L6770 2820
" />
<path d="M7088 3213
L7088 2820
L7220 3101
L7351 2820
L7351 3213
" />
<path d="M7501 2820
L7745 2820
L7613 2970
L7670 2970
L7707 2988
L7726 3007
L7745 3045
L7745 3138
L7726 3176
L7707 3195
L7670 3213
L7557 3213
L7520 3195
L7501 3176
" />
<path d="M7895 2857
L7913 2838
L7951 2820
L8045 2820
L8082 2838
L8101 2857
L8120 2895
L8120 2932
L8101 2988
L7876 3213
L8120 3213
" />
<path d="M8457 2951
L8457 3213
" />
<path d="M8363 2801
L8270 3082
L8513 3082
" />
<path d="M8663 3213
L8663 2820
L8888 3213
L8888 2820
" />
<path d="M14838 6413
L14613 6413
" />
<path d="M14726 6413
L14726 6020
L14688 6076
L14651 6113
L14613 6132
" />
<path d="M15082 6020
L15120 6020
L15157 6038
L15176 6057
L15195 6095
L15213 6170
L15213 6263
L15195 6338
L15176 6376
L15157 6395
L15120 6413
L15082 6413
L15045 6395
L15026 6376
L15007 6338
L14988 6263
L14988 6170
L15007 6095
L15026 6057
L15045 6038
L15082 6020
" />
<path d="M15457 6020
L15495 6020
L15532 6038
L15551 6057
L15570 6095
L15588 6170
L15588 6263
L15570 6338
L15551 6376
L15532 6395
L15495 6413
L15457 6413
L15420 6395
L15401 6376
L15382 6338
L15363 6263
L15363 6170
L15382 6095
L15401 6057
L15420 6038
L15457 6020
" />
<path d="M15757 6151
L15757 6413
" />
<path d="M15757 6188
L15776 6170
L15813 6151
L15870 6151
L15907 6170
L15926 6207
L15926 6413
" />
<path d="M11445 604
L11426 623
L11370 642
L11332 642
L11276 623
L11239 586
L11220 548
L11201 473
L11201 417
L11220 342
L11239 304
L11276 267
L11332 248
L11370 248
L11426 267
L11445 286
" />
<path d="M11689 248
L11764 248
L11801 267
L11839 304
L11857 379
L11857 511
L11839 586
L11801 623
L11764 642
L11689 642
L11651 623
L11614 586
L11595 511
L11595 379
L11614 304
L11651 267
L11689 248
" />
<path d="M12026 642
L12026 248
L12251 642
L12251 248
" />
<path d="M12438 642
L12438 248
L12663 642
L12663 248
" />
<path d="M12757 679
L13057 679
" />
<path d="M13226 248
L13263 248
L13301 267
L13320 286
L13338 323
L13357 398
L13357 492
L13338 567
L13320 604
L13301 623
L13263 642
L13226 642
L13188 623
L13170 604
L13151 567
L13132 492
L13132 398
L13151 323
L13170 286
L13188 267
L13226 248
" />
<path d="M13732 642
L13507 642
" />
<path d="M13620 642
L13620 248
L13582 304
L13545 342
L13507 361
" />
<path d="M13863 248
L14126 642
" />
<path d="M14126 248
L13863 642
" />
<path d="M14351 248
L14388 248
L14426 267
L14444 286
L14463 323
L14482 398
L14482 492
L14463 567
L14444 604
L14426 623
L14388 642
L14351 642
L14313 623
L14294 604
L14276 567
L14257 492
L14257 398
L14276 323
L14294 286
L14313 267
L14351 248
" />
<path d="M14613 248
L14857 248
L14726 398
L14782 398
L14819 417
L14838 436
L14857 473
L14857 567
L14838 604
L14819 623
L14782 642
L14669 642
L14632 623
L14613 604
" />
<path d="M12476 4307
L12495 4288
L12532 4270
L12626 4270
L12663 4288
L12682 4307
L12701 4345
L12701 4382
L12682 4438
L12457 4663
L12701 4663
" />
<path d="M12870 4626
L12888 4645
L12870 4663
L12851 4645
L12870 4626
L12870 4663
" />
<path d="M13038 4307
L13057 4288
L13095 4270
L13188 4270
L13226 4288
L13245 4307
L13263 4345
L13263 4382
L13245 4438
L13020 4663
L13263 4663
" />
<path d="M13432 4663
L13432 4270
" />
<path d="M13470 4513
L13582 4663
" />
<path d="M13582 4401
L13432 4551
" />
<path d="M14476 8113
L14251 8113
" />
<path d="M14363 8113
L14363 7720
L14326 7776
L14288 7813
L14251 7832
" />
<path d="M14720 7720
L14757 7720
L14795 7738
L14813 7757
L14832 7795
L14851 7870
L14851 7963
L14832 8038
L14813 8076
L14795 8095
L14757 8113
L14720 8113
L14682 8095
L14663 8076
L14645 8038
L14626 7963
L14626 7870
L14645 7795
L14663 7757
L14682 7738
L14720 7720
" />
<path d="M15188 7851
L15188 8113
" />
<path d="M15020 7851
L15020 8057
L15038 8095
L15076 8113
L15132 8113
L15170 8095
L15188 8076
" />
</g>
<g style="fill:#C1C100; fill-opacity:0.0; 
stroke:#C1C100; stroke-width:59.0551; stroke-opacity:1; 
stroke-linecap:round; stroke-linejoin:round;">
<path d="M16029 235
L16029 13235
" />
<path d="M29 235
L16029 235
" />
<path d="M29 13235
L29 235
" />
<path d="M16029 13235
L29 13235
" />
</g> 
</svg>
